<?xml version="1.0" encoding="iso-8859-1"?>
<!-- Uploaded to: SVG Repo, www.svgrepo.com, Generator: SVG Repo Mixer Tools -->
<svg version="1.1" id="Layer_1" xmlns="http://www.w3.org/2000/svg" xmlns:xlink="http://www.w3.org/1999/xlink" 
	 viewBox="0 0 512 512" xml:space="preserve">
<path style="fill:#507C5C;" d="M460.253,410.142h-45.898c-7.99,0-14.467-6.477-14.467-14.467c0-7.99,6.477-14.467,14.467-14.467
	h45.898c12.58,0,22.814-10.234,22.814-22.814V94.018c0-12.579-10.234-22.814-22.814-22.814H51.747
	c-12.58,0-22.814,10.234-22.814,22.814v264.378c0,12.58,10.234,22.814,22.814,22.814h273.402c7.99,0,14.467,6.477,14.467,14.467
	c0,7.99-6.477,14.467-14.467,14.467H51.747C23.213,410.142,0,386.929,0,358.396V94.018c0-28.532,23.213-51.747,51.747-51.747
	h408.506c28.534,0,51.747,23.213,51.747,51.747v264.378C512,386.929,488.787,410.142,460.253,410.142z"/>
<rect x="186.85" y="395.674" style="fill:#CFF09E;" width="138.3" height="59.588"/>
<g>
	<path style="fill:#507C5C;" d="M325.149,469.729H186.851c-7.99,0-14.467-6.477-14.467-14.467v-59.585
		c0-7.99,6.477-14.467,14.467-14.467h138.297c7.99,0,14.467,6.477,14.467,14.467v59.585
		C339.615,463.252,333.138,469.729,325.149,469.729z M201.318,440.796h109.364v-30.652H201.318L201.318,440.796L201.318,440.796z"/>
	<path style="fill:#507C5C;" d="M368.433,469.729H143.567c-7.99,0-14.467-6.477-14.467-14.467c0-7.99,6.477-14.467,14.467-14.467
		h224.865c7.99,0,14.467,6.477,14.467,14.467C382.899,463.252,376.422,469.729,368.433,469.729z"/>
</g>
<path style="fill:#CFF09E;" d="M218.213,333.575H142.64V242.98c0-20.869,16.917-37.787,37.787-37.787l0,0
	c20.869,0,37.787,16.917,37.787,37.787V333.575z"/>
<path style="fill:#507C5C;" d="M218.213,348.04H142.64c-7.99,0-14.467-6.477-14.467-14.467v-90.595
	c0-28.813,23.442-52.253,52.253-52.253s52.253,23.44,52.253,52.253v90.595C232.68,341.564,226.203,348.04,218.213,348.04z
	 M157.107,319.107h46.64v-76.129c0-12.858-10.461-23.32-23.32-23.32s-23.32,10.461-23.32,23.32L157.107,319.107L157.107,319.107z"/>
<path style="fill:#CFF09E;" d="M293.787,333.575h-75.573V197.632c0-20.869,16.917-37.787,37.787-37.787l0,0
	c20.869,0,37.787,16.917,37.787,37.787L293.787,333.575L293.787,333.575z"/>
<g>
	<path style="fill:#507C5C;" d="M293.787,348.04h-75.573c-7.99,0-14.467-6.477-14.467-14.467V197.63
		c0-28.813,23.442-52.253,52.253-52.253s52.253,23.44,52.253,52.253v135.944C308.253,341.564,301.776,348.04,293.787,348.04z
		 M232.68,319.107h46.64V197.63c0-12.858-10.461-23.32-23.32-23.32c-12.859,0-23.32,10.461-23.32,23.32L232.68,319.107
		L232.68,319.107z"/>
	<path style="fill:#507C5C;" d="M369.36,348.04h-75.573c-7.99,0-14.467-6.477-14.467-14.467v-181.29
		c0-28.813,23.44-52.253,52.253-52.253c28.813,0,52.253,23.442,52.253,52.253v90.937c0,7.99-6.477,14.467-14.467,14.467
		c-7.99,0-14.467-6.477-14.467-14.467v-90.937c0-12.859-10.461-23.32-23.32-23.32c-12.858,0-23.32,10.461-23.32,23.32v166.825
		h61.107c7.99,0,14.467,6.477,14.467,14.467S377.35,348.04,369.36,348.04z"/>
</g>
</svg>