<svg fill="none" height="90" viewBox="0 0 75 90" width="75" xmlns="http://www.w3.org/2000/svg" xmlns:xlink="http://www.w3.org/1999/xlink"><clipPath id="a"><path d="m0 0h74.3478v90h-74.3478z"/></clipPath><g clip-path="url(#a)" fill="#fff"><g clip-rule="evenodd" fill-rule="evenodd"><path d="m26.5119 39.1427v-.005l-.1476-.0963-.1757-.0329-.1706.0329-.1298.0887-.0077.0126h.6289zm2.0036 0-.0179-.1114-.1502-.3851-.1654-.1798-.1197-.0406-.1044.0304-.1374.1546-.1197.3648-.0102.1697h.8223zm-3.9919 0-.0178-.1114-.1502-.3851-.1655-.1798-.1196-.0406-.1019.0304-.1374.1546-.1197.3648-.0102.1697h.8223zm-2.6502 8.1851c-.0432.0329-.0585.1621-.0585.2103 0 .0481.0178.1798.0636.2128h8.6405c.0433-.033.0586-.1622.0586-.2103s-.0179-.1799-.0637-.2128zm7.4542-1.9456.0407.0127.1909.0405.1833.0152.1732-.0076h.0025l-.1477-.8486-.1196.0481-.2444.0507-.1171.005zm-6.8661.0608h.0077l.0076-.005.112-.7828-.0178-.0076-.1095.7929zm.6365-.6738-.0968.6713c.2292.1165.6238.076.8809.0025l.1069-.7676-.224-.0861-.0331-.0177-.0051.0405-.3361.1241-.2214.0355h-.0713zm1.4053-.0076-.0917.6916c.3182.0684.7128.0329 1.0107-.033l.0204-.0076.0382-.7448h-.0051l-.2368-.0836-.2597.1115-.2444.0557-.2316.0127zm1.5249-.0228-.0305.5953c.196.0659.3844.0937.5931.114l.1757-.0076.1706-.0329.1603-.0583.0357-.0203.0204-.6612h-.0051l-.2419-.0836-.0916-.043-.0917.0532-.2444.0886-.252.0482-.2011.0101zm1.6828 0-.0153.5826.0204.0102.1807.0608.1808.0405.1782.0152.1731-.0076.1655-.0329.1553-.0583.0229-.0127-.0382-.6916-.0891-.0177-.2037-.0659-.0534.0304-.2393.0887-.247.0507-.1884.0101zm1.003-.6663.0331.0102.191.0405.1833.0152.1731-.0076.1604-.0329.1451-.0583h.0025l-.1273-.6511-.112-.0253-.2444-.0836-.1018.0583-.2393.0886-.0993.0203.0356.6207zm-6.0641-.005.0738.043.135.0532.1349.0304.1324.0051.1273-.0203h.0076l.0026-.0228.0101-.0709.0968-.6891-.2037-.0912v.0178l-.3386.1241-.0942.0152-.084.608zm1.2322-.5903-.0713.5117.1528.0786.1705.0658.1706.0406.168.0177.1629-.0101.1553-.0355.0204-.0076.0382-.6916-.1502-.0329-.2368-.0836-.0331-.0152-.1858.0937-.2164.0583-.14.0076zm1.5147.0051-.0305.5624.0484.0076.2011.0684.1807.0405.1808.0152.1757-.0076.1705-.0329.1604-.0583.0306-.0177-.0051-.5979-.2012-.0456-.3029-.1064-.0586.0329-.2469.0887-.252.0481h-.051zm1.6726-.0026.0051.57.028.0127.1808.0608.1807.0405.1782.0152.1732-.0076.1629-.0329c.0636-.0253.1196-.0608.1757-.0988l-.0331-.5599-.1044-.0101-.2521-.0532-.2214-.0735-.2444.0887-.2343.0456zm2.2633-.7068.1273.0431-.1095-.6282-.0535.0253h-.0102zm-6.0209-.5041-.0636.4535.1273.076.1425.0633.1401.0405.1374.0152.1299-.0076.1247-.0329h.0051l.0255-.6536-.0942-.0202-.2266-.0786-.3361.1292-.112.0178zm1.2882.0026-.0204.5015.0891.0406.1782.0633.1808.038.1782.0152.1757-.0076.1705-.0329.163-.0583.0356-.0203.0102-.5674-.1909-.0431-.2877-.0988-.0458.0254-.247.0886-.252.0482zm1.721-.0076-.0102.5598.1502.0532.1782.038.1757.0152.1731-.0076.168-.0329.1604-.0583.0356-.0203.0102-.5877-.1018-.0228-.2419-.0836-.1094-.0506-.1019.0582-.2393.0887-.2469.0481zm1.5962.005-.0127.608.1756.038.1808.0152.1756-.0076.1655-.0329.1553-.0583.0204-.0127-.0458-.5573-.0891-.0101-.2164-.0557-.0535-.0228-.1044.038-.2495.0481-.0993.0051zm.9318-.5548.1323-.0076.1273-.0304.1171-.0532h.0051l-.0432-.3572-.0484-.271-.14.0557-.1833.038.0305.6283zm-5.8732-.0152.0509.0127.1324.0051.1273-.0203h.0076l.0891-.6283-.1476-.0329-.1604-.0557zm.9292-.5953-.0636.4408.1171.0532.1782.0633.1807.0406.1782.0152.1757-.0076.1706-.033.1629-.0582.0356-.0203.0102-.5067-.2317-.0506-.2367-.0836-.0407-.0203-.0535.0304-.247.0887-.252.0481-.084.0051zm1.7057-.0127-.0102.532.1095.038.1807.0406.1782.0152.1732-.0076.1654-.033.1553-.0582.0255-.0152-.0229-.5168-.2266-.0507-.2393-.0836-.0127-.0051-.0255.0152-.2444.0887-.2037.0405zm1.5097.0026.0203.4661.0789.0405.1783.0608.1832.0406.1808.0152.1757-.0076.168-.033.1578-.0582.0255-.0152-.0255-.5143-.2367-.0532-.2419-.0836-.0993-.0456-.0993.0557-.2469.0887-.2215.0431zm.8299-.6688.0153.0076.1807.0633.1808.0406.1731.0152.1655-.0076.1553-.033.1425-.0582.0102-.0051-.0916-.6485h-.9191l-.0102.6282zm-4.7912-.0203.056.0254.1756.0608.1808.0405.1782.0152.1757-.0076.1705-.0329.163-.0583.0356-.0203.0102-.6308h-1.0642l-.084.608zm1.7031-.608-.0102.6536.1222.0431.1782.0405.1757.0152.1731-.0076.168-.0329.1604-.0583.0357-.0202.0102-.6308h-1.0107zm1.5657 0-.0127.6714.0713.0253.1807.0405.1782.0152.1757-.0076.1705-.0329.163-.0583.0356-.0202.0102-.6308h-.975zm-3.4547-.6586.0179-.3141.2036-.6182.3768-.4256.5117-.152.5066.1723.387.4231.2367.6029.135-.2381.392-.2711.4481-.0887.4506.0887.3997.2685.0127.0228.1349-.4053.3768-.4256.5117-.152.5067.1723.3869.423.2393.6106.0458.3065h.2037l1.2704 7.2553c.4735.1216.7688.6359.7714 1.1425.0025.5801-.3794 1.1704-.9675 1.1704h-8.6608c-.5855 0-.975-.5852-.9776-1.1678-.0025-.5219.3055-1.0514.7968-1.1527l1.0005-7.2452h.2801zm.2699 17.2111 10.224-8.6131-.0917-15.405c-4.5952 3.1591-9.4246 2.7259-14.2591.3066-.8885 8.1673-.0789 16.6209 4.1268 23.709zm12.1664 3.8861.2775-.8132-.5499-.2939-.2469.3116.5219.798zm-1.7286 1.5706.028.0355.1553.1418.1553.1064.1578.0735.1655.0431.1757.0152.1909-.0152.0357-.0076.364-1.0741-1.1303-1.7303.9674-1.2185 1.6395.8765-1.2907 3.7949-.4787.1115-.3004.0253-.2953-.0253-.2826-.076-.2698-.1242-.2495-.1697-.2291-.2103-.3361-.4002.471-1.4845.7103.1824-.359 1.1298zm1.2118 2.6498 2.9812-5.7455c-1.1202-.7751-2.3626-1.0842-3.7042-1.0082l-3.1619 5.102c1.4639.1014 2.7138.7296 3.8824 1.6517zm4.6461-3.4807-.4506.5624-1.4791-.3952.4633-.5776 1.4435.3851.4404-.5472-.0433-.0102-.4378.5472-1.4791-.3952.4531-.5649-.1986-.0532.4634-.5776 1.4765.3952-.4531.5649.0407.0102.4379-.5472 1.4791.3952-.4531.5649.1985.0532-.4633.5776-1.4435-.3851zm-1.1227 1.7708.4277-.532-.0407-.0102-.4277.532zm.1426.081-.4354.5422-1.4791-.3952.4506-.5599-.2138-.0583.4557-.5674-.1171-.0304.4633-.5776 1.4333.3825.4633-.5776 1.4792.3952-.4634.5776-1.4333-.3825-.4531.5674.0407.0102.443-.5523 1.4766.3952-.4557.5675.1171.0304-.4481.5598.2138.0583-.4633.5801-1.4791-.3952.4481-.5598-.0408-.0102zm-3.0601 1.6315.1477-.0102.3157-.0126.3156-.0051.3106.0051.3106.0126.3081.0203.3055.0279.3029.038.3004.0456.2979.0557.2953.0633.2927.0735.2903.0836.2876.0937.023.0076 2.3599-5.0083-.0356-.0304-.224-.1672-.2266-.1469-.2291-.1292-.2317-.114-.2342-.0963-.2368-.081-.2393-.0659-.2444-.0507-.2469-.038-.2495-.0253-.2521-.0127h-.2545l-.2572.0102-.2622.0228-.2342.0278-2.8029 5.4035zm4.3381 1.2641-.4532-.1622-.2673-.0861-.2724-.0785-.2724-.0709-.2775-.0608-.28-.0532-.2826-.0431-.2851-.0355-.2877-.0278-.2902-.0203-.2928-.0101h-.2953-.3004l-.303.0126-.3055.0203-.2215.0203-.0865.1697-.1833-.1444-.1528.0127v-.1343l-.2291-.1799-.224-.1697-.2291-.1621-.2317-.1546-.2342-.1444-.2393-.1368-.2419-.1266-.2469-.1166-.2521-.1038-.2545-.0937-.2597-.0811-.2648-.0684-.2724-.0557-.2775-.0431-.2851-.0279-.9394-.043 3.8213-6.1661.476-.0228h.2928l.2877.0076.2851.0203.28.0329.2775.0456.2724.0558.2699.0684.2647.081.2597.0938.2571.1038.2521.1166.2469.1292.2444.1393.2393.152.3183.2229.084-.0101.2851-.0228.2826-.0127h.2826l.28.0152.28.0279.2775.0431.2775.0582.2724.076.2724.0937.2673.1115.2648.1292.2622.1495.2572.1697.252.19.4302.3648-.0305.0659.4633.2381-.1884.4028.3233.1672-2.7011 5.8316-.4124-.2128.0942-.2052-.4811-.2457.0432-.0938zm7.0162-3.6758-9.6079-8.0685-9.5111 8.0659c2.7902 2.7132 6.0743 4.755 9.5977 6.2142 3.503-1.4592 6.7617-3.4985 9.5239-6.2142zm-16.2702-8.4131c.4964 0 .9139.4155.919.945.0025.5294-.4124.9474-.9089.9474-.4964 0-.9139-.4155-.919-.9449-.0025-.5295.4124-.9475.9089-.9475zm6.3798-4.6688c.4964 0 .9164.4155.919.9449.0025.5295-.4124.9475-.9089.9475-.4964 0-.9139-.4155-.919-.945-.0025-.5294.4124-.9474.9089-.9474zm-.0433-7.3263c.4964 0 .9139.4155.919.945.0026.5294-.4124.9474-.9088.9474-.4965 0-.914-.4155-.9191-.9449-.0025-.5295.4124-.9475.9089-.9475zm-.0382-6.361c.4964 0 .9165.4154.919.9449.0026.5294-.4124.9474-.9088.9474-.4965 0-.914-.4154-.9191-.9449-.0025-.5295.4125-.9474.9089-.9474zm6.5936 18.3561c.4965 0 .914.4155.9191.945.0025.5294-.4124.9474-.9089.9474-.4964 0-.9139-.4155-.919-.9449-.0026-.5295.4124-.9475.9088-.9475zm-16.4663 7.6835 10.2291-8.674 10.3309 8.674c1.1787-1.2514 2.2429-2.6169 3.1721-4.0862l-10.7892-9.0008-.0993-16.6411c-.9979-.8005-1.9144-1.7176-2.7571-2.6954-.8299.9804-1.7362 1.8949-2.724 2.6929l.0993 16.6411-10.6822 8.9982c.947 1.4693 2.0265 2.8373 3.223 4.0888zm18.8849-14.3485.0687.0405.168.0912.1706.0836.1731.076.1731.0684.1731.0583.1731.0506.1706.0406.168.0278.1655.0178.163.0076.1349-.0051.0509-.1013.0356-.1267.0179-.1495v-.0456l-.2037.0254-.2189.0177-.219.0076h-.2164l-.2164-.0101-.2138-.0203-.2139-.0304-.2113-.0405-.2113-.0532-.0789-.0228zm-.7485-1.6441.0051.1494.0051.1064.056.038.1655.1014.1654.0886.1655.0786.1655.0709.1655.0608.1654.0507.1681.0405.168.0329.1706.0253.1731.0178.1756.0076h.1782l.1808-.0076.1833-.0152.0407-.0051.0331-.0354h-.1756l-.1935-.0076-.196-.0203-.1986-.0329-.2037-.0431-.2062-.0557-.2088-.0659-.2087-.0785-.2113-.0912-.2113-.1039-.2113-.1165-.2088-.1292-.0967-.0659zm.1171-1.5631-.0153.076-.0356.2154-.0153.1216.0204.0177.1705.1393.1706.1292.1731.1165.1731.1064.1706.0938.1706.0836.1706.0734.168.0634.1655.0532.1603.043.1604.033.1553.0253.1502.0152.1426.0076h.0815l.0814-.0279.0662-.0481.056-.0709-.0305-.0051-.2292-.0456-.2265-.0532-.2241-.0659-.2215-.076-.2189-.0861-.2164-.0988-.2113-.1115-.2087-.1241-.2037-.1368-.1986-.1494-.1935-.1647-.1527-.1469zm1.3976-1.9227-.0432.0152-.1604.0734-.1477.0836-.1374.0938-.1273.1064-.1171.1165-.107.1267-.0993.1368-.0916.1469-.0127.0228.1069.1266.1451.1546.1502.1418.1528.1318.1578.119.1604.109.1655.0988.168.0886.1731.0786.1782.0709.1808.0608.1858.0532.1884.0456.1909.038.1884.0279.1629.0126.0204-.0076.0127-.0126.0382-.076.0382-.1571.0255-.2179v-.043l-.3997-.1064-.3819-.1875-.3309-.266-.2699-.3344-.2062-.3926-.1477-.4434-.0051-.0329zm5.4175-2.6448.3004.0583.1706-.038.1146-.0861.0636-.1064.0127-.0836-.0127-.0406-.0585-.0506-.4761-.1166-.2444-.3926-.1451-.2078-.1553-.195-.1655-.185-.1757-.1722-.1858-.1622-.196-.1519-.2062-.1419-.2164-.1343-.2292-.1241-.2393-.114-.252-.1064-.2648-.0963-.2749-.0886-.2877-.0786-.4862-.1165-.2597-.4028-.1324-.1596-.1145-.0937-.0942-.0456-.0942-.0152-.1248.0152-.1756.0633-.1273.0709-.1222.2508-.1553.3395-.1248.3015-.0942.2584-.0636.2204-.0356.1672-.0102.114v.0304h.0051l.0865.0101.14-.0051.1884-.0253.3844-.0811.0484.0228c1.4817.684 2.9582 1.3376 4.4832 1.9025zm-4.1445 1.6365.2418.0228.3462.0127h.2673l.4303-1.7201-.6034-.2787-.6848 1.9633zm-.1248-6.2572.3259.0532.3106.152.2673.2204.2265.2711.0892.1368.1451.0354.3207.0887.3106.0988.3004.1115.2902.1215.2801.1343.2698.1469.2597.1596.2495.1723.2368.1849.2265.2002.2139.2128.2037.2254.1909.2407.1782.2533.056.0912.331.0811.4226.3698.168.5143-.0738.5092-.2597.4332-.415.3116-.5371.1216-.555-.109-1.749-.6485-.3462 1.3857h.2927l.3946.0203.3921.0405.392.0709.387.114.3768.1647.3564.2255.3284.2938.2571.3218 2.5153-.494c.1757-2.9944.0407-6.0065-.3182-8.9805-2.4491 1.2337-4.8931 1.9455-7.309 1.9405zm-3.4368 16.0129-.0637-.4737.4379-1.938-.2775-.3116-.0815-.4104-.0509-.2736-.0458-.2761-.0382-.2761-.0356-.2787-.028-.2786-.0229-.2787-.0153-.2787-.0077-.2761v-.2761l.0051-.2736.0153-.2711.0229-.266.0331-.2634.0433-.2584.0535-.2534.0636-.2482.0764-.2432.0891-.2356.1018-.228.1146-.2179.1324-.2102.1451-.2002.1629-.19.1782-.1748.1935-.1596.2087-.1444.2241-.1266.2393-.1089.252-.0912.2648-.071.2367-.043.7841-2.2547-.3487-.1621-.1299.0279-.2647.0354-.2495.0076-.2419-.0278-.2393-.0786-.2215-.152-.168-.2204-.0891-.2584-.0254-.2583.0203-.261.056-.2685.0866-.2888.112-.3091.14-.3369.168-.3673.2572-.5269.4429-.2508.3463-.1242.3258-.038c-2.3396-.0126-4.6512-.7017-6.9144-2.2445l.0917 15.3999 3.4266 2.8575zm7.2581-2.4725-.3132.2128-.2749.1723-.2775.1621-.2826.1495-.2851.1368-.2877.1266-.2928.114-.2927.1014-.2979.0912-.3004.0785-.303.0659-.3054.0532-.3106.043-.3106.0304-.2928.0178-.5219 1.3274-.364.3369-.3641.1925-.3768.0684 5.7026 4.755c1.1151-1.9177 1.996-3.9722 2.6553-6.1128-.975-.3825-1.5376-1.4313-2.3014-2.1178zm.6313-5.211-.3106-.3901-.2011-.1798-.224-.1419-.2495-.1089-.2775-.0811-.3055-.0557-.3259-.033-.3487-.0152h-.3641-.3742l-.3819.0051h-.3869l-.3896-.0152-.3869-.0355-.1044-.0177.0306.0937.1247.2382.1477.1824.1731.1393.2113.1039.2571.0684.527.0455 1.8253 2.1001-.6517.6764-1.0463-1.2033-.0204.0862-.1553.3191-.2011.1976-.0306.1242-.0051.0126.0561.3218v.3166l-.0484.3066-.1044.2887.0306.1495.0432.2508.028.266v.2787l-.028.2888-.0789.2913-.14.2837-.2928.3749-.392.0431-.2241.0076-.2265-.0101-.2215-.0254-.219-.038-.2189-.0506-.2164-.0634-.2113-.0734-.2088-.0811-.2062-.0912-.1171-.0557-.4913 2.171.0229.1621.0484.1191.0483.0583.0433.0253.056.0101.084-.0152.1171-.0633.0968-.0912.6823-1.7328.616-.0101.2775-.0152.275-.0253.2724-.038.2673-.0482.2673-.0582.2622-.0684.2623-.0786.2571-.0886.2546-.0988.2545-.1115.2521-.1216.2495-.1317.2469-.1419.2444-.1545.308-.2077 1.1711-4.3345zm-14.9286 26.3918-1.4613-.6333-1.1558-.5523-1.1278-.5928-1.0972-.6333-1.0693-.6738-1.0361-.7144-1.0031-.7575-.9699-.798-.9369-.8385-.8986-.8816-.8631-.9221-.8248-.9652-.7841-1.0057-.7434-1.0487-.7001-1.0894-.6568-1.1323-.6136-1.1729-.5677-1.216-.5219-1.2565-.4735-1.2996-.4251-1.3401-.3743-1.3832-.3233-1.4237-.2724-1.4668-.2215-1.5073-.1655-1.5503-.112-1.591-.056-1.6339v-1.6745l.0586-1.7176.1171-1.7581.2826-2.8829 1.5605.7727.5881.271.5856.2483.5804.2229.5754.2002.5728.1748.5677.152.5626.1266.5601.1014.555.0785.5499.0507.5473.0253h.5423l.5397-.0253.5346-.0532.5321-.0786.5295-.1064.527-.1342.5244-.1622.5219-.1925.5194-.2204.5193-.2508.5168-.2812.5143-.3116.5142-.342.5117-.3749.5117-.4079.5092-.4433.5066-.4762.5066-.5118.5041-.5472 1.0641-1.2337 1.0769 1.2312.5092.5472.5117.5117.5142.4763.5143.4433.5143.4079.5168.3749.5168.3445.5193.3116.5193.2812.5219.2508.5219.2204.5245.1925.5269.1622.5296.1342.532.1064.5321.0811.5372.0532.5397.0253h.5423l.5473-.0253.5499-.0507.555-.076.5575-.1013.5626-.1267.5652-.152.5703-.1748.5728-.2001.5779-.2229.583-.2483.5855-.271 1.5529-.7727.3157 2.8829.1375 1.7581.0789 1.7175.0204 1.6745-.0356 1.634-.0917 1.5909-.1477 1.5504-.2011 1.5073-.2546 1.4668-.308 1.4237-.359 1.3831-.4098 1.3402-.4583 1.2995-.5066 1.2565-.555 1.216-.5982 1.1729-.6441 1.1324-.6874 1.0893-.7307 1.0488-.7713 1.0057-.8121.9652-.8503.9221-.8885.8816-.9267.8385-.9623.798-.9954.7575-1.0285.7143-1.0591.6739-1.0922.6333-1.1201.5928-1.1482.5523-1.4511.6333zm-.0687.7017c4.2413-1.5225 8.1415-3.9139 11.3517-7.23 8.3757-8.6537 9.8319-20.9933 7.7138-32.6743-7.2963 4.5903-13.755 3.2604-19.2488-3.5972-5.4557 6.9133-11.9119 8.1546-19.2056 3.5998-1.9858 11.7139-.415 24.0358 7.9785 32.6641 3.2332 3.3237 7.1512 5.7177 11.4129 7.2402zm.0051 1.0184-1.609-.6105-1.3289-.5725-1.2933-.6283-1.2576-.684-1.2195-.7372-1.1787-.7903-1.1379-.8411-1.0947-.8942-1.0515-.945-1.0056-.9981-.9597-1.0488-.9114-1.0994-.8631-1.1476-.8121-1.1957-.7612-1.2438-.7052-1.292-.6517-1.3376-.5957-1.3857-.5397-1.4313-.4812-1.4769-.42-1.52-.3615-1.563-.2979-1.6061-.2342-1.6492-.1706-1.6897-.1069-1.7327-.0407-1.7733.028-1.8139.0967-1.8543.1655-1.8924.2368-1.9304.4837-3.0779 1.5834.9778.6263.3598.6237.3293.6187.2989.6135.2685.611.2382.6059.2077.6008.1773.5957.147.5932.114.5881.0836.583.0532.5804.0202.5754-.0101.5728-.0431.5703-.076.5651-.1064.5626-.1393.5601-.1748.5576-.2077.5549-.2407.5525-.2761.5499-.3141.5499-.3496.5473-.3851.5448-.4231.5423-.461.5397-.4991.5372-.5396.5346-.5801.5321-.6181 1.1074-1.3806 1.1201 1.3781.5397.6181.5423.5776.5448.5396.5474.499.5473.4611.5499.423.5524.3851.5525.3496.555.3141.555.2787.5575.2432.5601.2077.5626.1748.5626.1393.5677.1064.5703.076.5728.0431.5754.0101.5804-.0202.583-.0507.5881-.0836.5906-.114.5957-.1469.6008-.1774.6034-.2077.6084-.2381.611-.2686.6161-.2989.6186-.3293.6238-.3597 1.5733-.9779.5193 3.078.2597 1.9303.1858 1.8924.1146 1.8544.0458 1.8138-.0229 1.7733-.0891 1.7327-.1578 1.6923-.2215 1.6492-.2851 1.6061-.3488 1.563-.4099 1.52-.471 1.4769-.5295 1.4313-.5881 1.3857-.6441 1.3376-.7001 1.2919-.7535 1.2439-.8045 1.1957-.8554 1.1476-.9063 1.0969-.9547 1.0462-1.0005.9981-1.0463.945-1.0896.8942-1.1329.8411-1.1736.7878-1.2144.7347-1.2525.6814-1.2882.6283-1.3238.5725-1.5988.6105z"/><path d="m46.8989 5.24022.527.11907v-.05573c0-.25333 0-.50666-.2775-.56746-.2648-.05827-.2546.21786-.2546.42306 0 .02787 0 .05573.0025.0836m-6.7031-.44079c-.2546.12666-.5346.28879-.5346.62065 0 .19.0382.33946.2444.34706.2724.01013.2902-.36733.2902-.57506v-.39519zm-7.309.15706c0 .1672-.028.86132.1273.96265.0331.0228.0764.02533.1171.02026.3386-.038.2826-.54212.2826-.81065v-.07093c0-.18493.0331-.91198-.1324-1.02598-.0407-.02787-.0917-.0304-.1375-.02533-.3182.03546-.2571.71438-.2571.94745zm14.0147.89932v.12159c0 .24573-.0153.73719.2826.80305.2698.0608.2647-.27359.2647-.47119v-.07346l.7332.16466v.04813c0 .04054.0051.08107.0051.1216 0 .75745-.3462 1.01585-1.0361.86132-.3132-.07093-.5907-.20013-.7765-.48639-.2826-.43066-.2622-1.01585-.2622-1.51744 0-.35466-.0204-.91958.2342-1.19064.2189-.23813.5601-.22293.8452-.1596.336.076.6186.24066.807.54719.2113.34959.2062.81318.2062 1.21344v.30906l-1.2983-.29132zm-1.1202-.07854c.0051.0608.0051.11907.0051.17987 0 .72705-.2673 1.14251-.9979 1.02091-.9598-.1596-1.0209-.96011-1.0209-1.83916 0-.82332.0382-1.68717 1.0387-1.51998.6772.114.975.53199.975 1.24891v.17987l-.751-.12667v-.12159c0-.1976-.0076-.4712-.2368-.51173-.2291-.038-.224.2356-.224.40786v1.06145c0 .20519-.0102.51425.2368.55479.2698.0456.2342-.38253.2342-.56999v-.1368l.7357.12413zm-3.5998-2.30275c.1426-.15707.3285-.23053.5525-.2052.4684.0532.7026.38506.7026.87145v2.48262l-.7586-.0836v-2.11782c0-.1976 0-.43573-.2317-.46106-.2597-.02787-.2495.30653-.2495.49906v2.02662l-.7841-.08613v-3.20207l.7688.08613v.18493zm-1.9424 2.69541c-.1578.19-.3793.2736-.6314.266-.5295-.02027-.7561-.46359-.7561-.98038 0-.64092.3183-.85372.8376-1.08172.196-.08613.4964-.13679.4964-.40279 0-.16973-.0865-.25079-.2444-.25586-.2316-.0076-.2953.1292-.2953.35719v.1216l-.7688-.02787v-.05826c0-.76252.3717-1.03865 1.0692-1.01332.7205.02787 1.0133.29893 1.0133 1.06905v1.7353c0 .152.0254.2812.0916.41799l.0433.0912-.779-.02786-.0153-.02534c-.028-.04306-.0458-.11399-.0586-.18239zm-2.304-2.78154c.1375-.2356.3208-.39773.6212-.4028h.0586v.99558l-.0662-.01013c-.0535-.0076-.1069-.01013-.163-.01013-.2571 0-.4124.16973-.4124.44079v1.86196h-.7994v-3.19953h.7587v.32172zm-2.0061 2.75368c-.1374.16719-.3207.27106-.5422.27866-.4812.01773-.7179-.28373-.7179-.77772v-2.48009l.7637-.02786v2.06969c0 .18746-.0153.47626.2291.46866.2648-.01013.2546-.32173.2546-.53452v-2.0241l.7892-.02787v3.19701l-.7739.02787v-.1748zm-2.4847.23053c-.1247.17226-.3004.27359-.527.29892-.8426.09374-.8273-.96264-.8273-1.58077 0-.66118-.0204-1.68463.7993-1.77583.2113-.0228.3895.02027.5219.1596v-1.15265l.779-.08613v4.20779l-.7484.0836v-.1596zm-3.004-2.51809c.1324-.17986.3106-.30146.5371-.33439.4761-.07094.7129.21533.7129.70425v2.46995l-.7561.11147v-2.13303c0-.1748.0101-.42306-.2164-.38759-.2623.038-.2623.35973-.2623.58012v2.01143l-.7815.11653v-3.2046l.7663-.114v.17479zm-2.4618-.05573v.68652l1.1787-.2432v1.00825l-1.1787.2432v.83851l1.2754-.26346v1.01838l-2.3421.48133v-4.53458l2.3421-.48133v.97785l-1.2754.26093z"/><path d="m52.9987 18.4696.6313.3724-.0687.1292c-.1044.2001-.1833.385.0407.5142.1299.076.2521.0608.3259-.081.0916-.1723-.0967-.4535-.168-.6105-.2241-.4788-.4481-.8791-.1757-1.3959.2979-.5624.7943-.5598 1.2831-.2711.5524.3268.6594.7955.3539 1.3756l-.0586.109-.6161-.3648.0586-.109c.1018-.19.1273-.3496-.0713-.4661-.1069-.0633-.224-.0557-.2877.0659-.0865.1646.0382.3825.1095.532.2393.499.5423.9474.2495 1.5022-.2979.5624-.8096.57-1.3035.2787-.5855-.3446-.7128-.8056-.3844-1.4263.0178-.0354.0407-.0658.0611-.1013l.028-.0532zm-.2826-.3369c-.0178.0557-.0407.1114-.0637.1672-.2825.6662-.7026.9575-1.3696.6409-.9038-.4281-.6314-1.2008-.3004-1.981.3309-.7803.6975-1.5124 1.6013-1.0843.6314.2989.7612.7752.4837 1.4288l-.0662.1545-.6924-.3268.0509-.119c.0713-.1672.1782-.4231-.0306-.5219-.2138-.1013-.3207.1419-.392.3141l-.4124.9677c-.0739.1748-.2088.456.0152.5624.2521.1191.3844-.2685.4659-.4585l.0484-.114.6772.3217-.0179.0532zm-2.2352-3.3972.2596-.7068.7307.299-.2597.7068zm-1.1813 3.2224 1.0922-2.9792.7306.299-1.0921 2.9791zm-.7052-3.5492c.1757-.1064.3819-.1241.5856-.0532.4506.1571.583.5346.4404.9956l-.7307 2.3534-.7255-.2508.6262-2.0165c.0535-.1722.1452-.3951-.0712-.4711-.2724-.0938-.3564.1849-.4252.4078l-.5957 1.9202-.7459-.2583 1.2449-4.0026.7434.2584-.3488 1.1222zm-2.2938-.2204-.252-.076.1706-.6231.252.0759.2215-.8055.7587.233-.2215.8056.2673.0811-.1706.6232-.2673-.0811-.4099 1.4946c-.0382.1419-.1145.299.0586.3522.0203.005.0407.0126.0611.0152l.0687.0076-.1807.6561-.051-.0101c-.1171-.0228-.2444-.0456-.3589-.0811-.5321-.1621-.5575-.4357-.415-.95l.471-1.715zm-1.5911-1.5047-.1502.6713 1.1685.2888-.2164.9778-1.1685-.2888-.1807.8208 1.2652.3141-.2189.9906-2.3218-.5751.9776-4.4104 2.3218.575-.2113.95z"/><path d="m69.8873 41.5227.0942.57.0687-.0102c.2189-.0304.4608-.0532.4124-.3445-.0483-.2837-.2927-.2558-.5117-.2254-.0204.0025-.0407.0076-.0611.0126m-2.3116-7.9342.2215.5345.0611-.0253c.2088-.0887.4277-.1723.3157-.4459-.1095-.266-.3335-.1773-.5423-.0912-.0178.0076-.0382.0177-.056.0279zm-2.1436-4.223.2903.5016.056-.0355c.196-.1191.3971-.2381.252-.4914-.1425-.2483-.3488-.1292-.5448-.0127-.0178.0101-.0356.0228-.0535.0355zm-3.06-4.3953.3666.4459.0484-.0431c.1756-.157.3487-.3116.1629-.5345-.1808-.2204-.3615-.0659-.5321.0887-.0153.0152-.0305.0304-.0458.0456zm-1.7006-2.8322s.0051.0076.0076.0102c.0128.0152.0255.0304.0382.043.0891.0912.2291.2128.3615.2179.1273.0051.247-.1013.331-.19.0789-.0836.1629-.2027.1527-.3293-.0127-.1343-.1324-.2812-.2215-.3699-.0127-.0127-.028-.0253-.0407-.038-.0025-.0025-.0051-.0051-.0102-.0076l-.6161.6663zm8.6456 19.4658c-.0433.0051-.0866.0101-.1299.0152-.1986.0279-.6823.0659-.6288.38.0484.2888.3462.2609.5601.2305l.0534-.0076.1299.7828-.0586.0076c-.0382.0051-.0738.0152-.112.0203-.7052.0962-1.0667-.228-1.1863-.9576-.051-.3091-.0535-.6359.1578-.8816.303-.3623.8961-.4129 1.3213-.4687.3717-.0506.8579-.1292 1.194.0887.2851.1849.4124.5143.4658.8487.0561.3318.028.6687-.2036.9221-.2546.2736-.7179.3242-1.0616.3724l-.2724.038-.2317-1.3908zm-.4176-1.2591c-.0534.0178-.1094.0304-.1629.0431-.6797.1571-1.1482-.038-1.334-.7802-.2571-1.0184.4761-1.2489 1.2678-1.4339.8045-.1874 1.5555-.2938 1.8075.7144.1783.7043-.0789 1.1071-.7459 1.2616l-.1527.0355-.1961-.7803.1222-.0279c.1681-.038.4201-.0962.3616-.3344-.0611-.2406-.303-.1925-.4812-.1494l-.9725.2254c-.1731.0406-.4633.0887-.3997.3446.0713.2862.4404.1697.6339.1266l.112-.0253.1935.765-.0509.0178zm.5016-4.3395c.196.0938.3411.2534.4149.4839.1528.4712-.0432.8081-.4888.9474l-2.2199.6916-.2495-.7726 1.9068-.5954c.1706-.0532.3844-.1165.3081-.347-.0866-.266-.3717-.1748-.5652-.114l-1.8101.5649-.2571-.798 2.8666-.8942.252.7828-.1629.0506zm-2.3575-2.1913c-.0407.0152-.0789.0304-.1196.0482-.1909.081-.639.2381-.5168.5345.112.2711.3844.1697.5881.0836l.0509-.0228.3029.7346-.056.0228c-.0356.0152-.0662.033-.1018.0482-.6645.2786-1.0794.038-1.3595-.6359-.1196-.2888-.196-.6105-.0509-.9044.2088-.4332.7587-.6307 1.1609-.7979.3437-.1444.7943-.3471 1.166-.2179.3157.1089.5142.4028.6415.7118.1299.3116.1808.646.0179.9551-.1808.3344-.611.5016-.9318.6358l-.2546.1064-.5422-1.3071zm.3692-2.3635c.2673.0278.4888.1266.639.4104l.0305.0557-.8274.4408-.0229-.0633c-.0203-.0558-.0432-.1064-.0712-.1571-.1222-.2381-.3361-.3217-.5678-.1976l-1.5427.8233-.387-.7549 2.6527-1.4136.3666.717-.2673.1418zm-2.472-1.7834c-.0382.0202-.0738.043-.1095.0658-.1807.1089-.5957.3344-.4353.6105.1451.2534.3997.114.5881-.0025l.0484-.0304.3946.6865-.051.0304c-.0331.0203-.0611.0431-.0942.0634-.6186.3774-1.0616.19-1.4205-.4358-.1553-.271-.2724-.5776-.1706-.8917.1477-.461.6619-.7397 1.0362-.9677.3182-.1951.7357-.4636 1.1201-.3876.3284.0608.5601.3293.7256.6156.168.2913.2622.6181.1425.95-.1349.3572-.532.5877-.8324.7701l-.2368.1444-.7052-1.2236zm-1.4638-1.7784 1.7566-.8765.4913.7093-2.8411 1.1906-.5499-.7954 1.9985-2.4117.5015.727-1.3569 1.4542zm-1.5326-2.5308c-.0331.0279-.0637.0558-.0968.0836-.1603.1444-.5269.4408-.3258.6866.1833.2229.4073.0405.5728-.1115l.0433-.038.499.608-.0433.0405c-.028.0253-.0535.0557-.0815.0811-.5448.4889-1.0081.3825-1.4613-.1698-.196-.2406-.3615-.5243-.3131-.8537.0662-.4838.5193-.8537.8503-1.1501.2775-.2508.6415-.5953 1.0285-.5902.3309 0 .6033.2254.8121.4788.2138.2609.359.5649.2953.917-.0713.38-.42.6789-.6848.917l-.2088.1875-.891-1.0868zm-.667-2.0089c.0967.38-.1018.7372-.3462 1.021-.0026.0025-.0077.0076-.0077.0101-.0509.0583-.0993.114-.1527.1722-.1477.1647-.4506.527-.4175.7778l.0229.1748-.9853-1.0184.0204-.0405c.0433-.0887.0942-.1723.1502-.2534.0611-.0861.1298-.1672.2011-.2432.056-.0608.1146-.119.1706-.1748.0433-.043.0866-.0861.1298-.1317.0917-.0988.2495-.2837.2673-.4256.0153-.1267-.0712-.2432-.1502-.3243l-.1069-.1089-1.1405 1.2312-.7892-.8132 2.9302-3.1615.8452.8714c.1808.1875.4023.4155.5474.6384.0891.1343.1604.2888.1833.4535.0203.1697.0051.3369-.0535.4965-.0636.1748-.1731.3293-.2953.4636-.1477.1596-.3233.2989-.5295.3648-.163.0532-.3259.0557-.4914.0253z"/><path d="m9.65883 27.2674c-.19094.2812.48117.6916.64157.8132.168.1266.6619.5852.8452.3116.028-.0431.0509-.0912.0509-.1419 0-.2432-.6085-.6587-.7739-.7828-.1986-.1495-.5652-.494-.76632-.1976m-2.34469 5.4871.2164-.5244-.0611-.0278c-.20367-.0938-.4277-.2052-.53971.0658-.10947.2635.12474.3724.32077.4611.02036.0101.04073.0177.0611.0253zm4.60541-9.1249c-.0102-.2128.0636-.4154.2164-.5776.3335-.3572.7102-.3166 1.0386.0279l1.6701 1.7404-.5372.575-1.4307-1.4921c-.1222-.1267-.2699-.3141-.4303-.1419-.2011.2154 0 .418.1579.5827l1.362 1.4186-.5499.5903-2.8386-2.9589.5499-.5902.7943.8283zm-1.194 2.2394-.163.2179-.4786-.4053.163-.2179-.62121-.5218.49131-.6511.6212.5244.1731-.2305.4786.4053-.1731.2305 1.1507.9703c.1095.0937.2164.2254.331.076.0127-.0178.0254-.033.0356-.0532l.0331-.0659.5041.4256-.028.0456c-.0637.1064-.1324.2229-.2088.3192-.3462.4585-.5931.3774-.9903.043l-1.3213-1.1146zm.9699 2.584c.0382.19-.0051.3724-.1247.5472-.5015.7397-1.2755.114-1.78717-.2736-.49643-.3749-1.28818-.9627-.80193-1.6796.13238-.1925.3004-.304.50152-.3166l-.12729-.0963.43788-.646 2.22499 1.6821c.2394.1824.527.3927.6314.6992.1248.3521-.0458.7397-.2393 1.026-.2775.4104-.6874.7093-1.138.38l-.0483-.0355.4557-.6713.0458.0304c.084.0582.1629-.0127.2138-.0862.1706-.2533-.0382-.4053-.2316-.5497l-.0153-.0126zm-3.95361 1.2413c-.06874-.2103-.05601-.4281.05601-.6359.23421-.4357.60845-.499 1.01068-.2584l2.03922 1.2236-.3768.7017-1.74643-1.0487c-.15529-.0938-.35132-.2154-.46588-.0051-.12984.2407.14256.3977.31059.4991l1.66242.9981-.38952.7245-2.62982-1.5782.38187-.7119.1502.0887zm.10183 3.3034c.03819.0203.07892.038.11711.0557.18839.0862.62118.3142.74337.0228.11202-.2685-.16547-.4028-.35895-.4914l-.05347-.0254.30041-.7245.05346.0254c.03564.0152.07128.0278.10438.043.65173.3015.79938.7651.5168 1.444-.11965.2913-.29277.5598-.59572.6485-.44806.1368-.97505-.1393-1.37983-.3242-.33605-.1546-.80447-.3547-.97759-.722-.14766-.3091-.08147-.6587.04328-.9627.12983-.3166.33095-.5725.65682-.6586.35896-.0887.77902.114 1.10233.2634l.25458.1166-.53207 1.2843zm-1.95263 1.2236c-.16294-.2179-.24695-.4535-.15021-.7549l.01782-.0583.88849.3344-.03055.0608c-.02546.0507-.04582.1038-.06364.157-.08656.2559.01527.4662.25458.5574l1.65986.6257-.26731.7954-2.84876-1.0715.25458-.755.28768.109zm-.41243 2.3407-.07892.266-.58553-.195.07892-.266-.75611-.2534.23931-.7954.7561.2533.08402-.2812.58553.1951-.08401.2812 1.40529.4712c.13492.0456.28004.1292.3335-.0532.00509-.0203.01273-.0406.01527-.0634l.00764-.0734.61609.2077-.01019.0532c-.02545.1241-.04837.2584-.08401.3775-.16802.5573-.42515.5776-.90885.4154l-1.6115-.5396zm.08656 3.4934.21894-1.0361.17566.0406c.12475.0304.33605.0709.46334.0304.09165-.0304.13747-.109.15784-.2052.01782-.0811.00764-.1571-.04073-.2255-.05601-.0785-.14511-.1165-.23167-.1368-.22912-.0532-.46079.1419-.611.3015-.03055.0304-.06364.0633-.09419.0937-.01273.0152-.02546.0279-.04073.0431-.18585.1849-.5219.5218-.75866.6282-.12219.0507-.25203.0785-.38441.0861-.14511.0076-.29023-.0076-.43279-.0405-.32841-.0785-.62372-.2432-.80448-.5522-.18329-.3091-.19602-.6663-.1222-1.0159.07638-.3597.22658-.7093.52444-.9196.29277-.2052.64409-.2102.97759-.1317.02291.0051.04583.0127.06874.0203.02037.005.04073.0126.0611.0177l.05601.0127-.2164 1.0209-.10692-.0254c-.11711-.0278-.27495-.0506-.39206-.0101-.08401.0304-.13492.0887-.15529.1799-.01528.0734-.00509.1418.03819.2026.04837.071.12474.1064.20366.1242.20876.0481.47098-.2052.60081-.3471.03819-.038.07638-.076.11202-.114.028-.0329.0611-.0659.09165-.0963.1782-.1874.46079-.4712.69755-.5649.11711-.043.24185-.0658.3666-.0684.13747-.005.27749.0127.41242.0431.35641.0836.69755.2533.90631.5826.20366.3268.21384.7119.13492 1.0818-.07892.3698-.23421.7371-.54989.9449-.31568.2077-.70264.195-1.05142.114-.028-.0076-.05601-.0127-.08401-.0203-.04583-.0127-.0942-.0279-.14002-.0431l-.05092-.0177z"/><path d="m28.7394 13.2009c.0968-.1875.2623-.3192.471-.3724.4608-.1191.7612.1267.8707.6004l.5524 2.4066-.7408.19-.4735-2.0646c-.0408-.1774-.0739-.418-.2953-.3597-.2775.0709-.2088.3546-.1579.5826l.4506 1.9633-.7612.1951-.9419-4.0964.7612-.195.2647 1.1476zm-2.0799 1.0994-.252.0786-.1757-.6207.2521-.0785-.2266-.8031.7561-.2381.2266.8031.2673-.0836.1756.6206-.2673.0836.4226 1.4921c.0408.1419.056.3167.2291.2635.0204-.0051.0382-.0127.0586-.0228l.0611-.0355.1858.6536-.0483.0203c-.1095.0481-.2291.1013-.3437.1393-.5295.1672-.6925-.0481-.8376-.5599l-.4837-1.7099zm-.5499 2.6879c-.0738.2051-.2164.3622-.4251.4458-.4481.1773-.774-.0228-.9369-.4838l-.8274-2.318.7154-.2837.6899 1.9354c.0637.1799.1477.4535.3768.3623.2469-.0988.1298-.3876.0611-.5827l-.6747-1.8949.7383-.2939 1.0667 2.9919-.723.2887-.0585-.1646zm-3.0753-1.5834c.0433-.2735.1502-.4965.4277-.6257l.0534-.0253.3641.9196-.0637.0177c-.0534.0152-.1018.0329-.1527.0557-.2393.1039-.3182.3243-.2189.5751l.6771 1.7176-.7382.3242-1.1635-2.9487.7001-.3091.1171.2964zm-3.195.9652-.6772.4079-.4582-.8487 2.3421-1.4085.4582.8487-.7128.4281 1.6624 3.0881-.9496.57-1.6624-3.0881z"/></g><path d="m29.5442 80.275-7.0315-1.3629v.7245 7.4808.38l.3437.1165c4.7759 1.6391 9.5544 2.4092 14.3354 2.3839 4.776-.0254 9.5494-.8436 14.3228-2.3813l.3513-.114v-8.5904l-6.3671 1.2363c-7.2555 1.069-8.7703 1.1577-15.9571.1241m-6.0387.0988c8.9053 2.7435 18.1313 2.5687 27.3726-.0178v6.3738c-4.5647 1.4364-9.1268 2.2014-13.6863 2.2242-4.5596.0228-9.1216-.6941-13.6837-2.2191v-6.3637z"/><path d="m41.2953 72.4395c-2.7571.4458-5.4938.3977-8.2128.0126-.9827-.1368-1.9501-.3217-2.8997-.5522-1.087-.2635-2.1486-.5903-3.1873-.9753-5.1553-1.9076-9.6003-5.2262-12.8309-9.4695l-5.73061 4.8133c.74083.9348 1.53003 1.8366 2.36251 2.6954.9521.9829 1.9603 1.9101 3.0193 2.779 5.3284 4.3699 11.9704 7.2705 19.2693 8.0635 2.6374.2584 5.3971.1697 8.2128-.0076 7.2988-.8107 13.9408-3.729 19.259-8.1167 1.0565-.8714 2.0647-1.8037 3.0143-2.7917.8299-.8613 1.6165-1.7631 2.3548-2.703l-5.7611-4.7752c-3.2205 4.2458-7.6502 7.5694-12.7953 9.4897-1.0336.385-2.0952.7144-3.1797.9803-.947.2331-1.9144.4206-2.8946.5599m-9.8828 8.2002c-6.8712-1.0361-13.1211-3.9037-18.2051-8.071-1.0922-.8942-2.1283-1.8493-3.1059-2.8575-.97759-1.0083-1.89663-2.0723-2.75202-3.1869l-.0051-.0076-.31313-.4079.38951-.3268 6.51214-5.4693.3921-.3294.308.418c3.139 4.2864 7.5458 7.6354 12.6858 9.5378.998.3699 2.0265.684 3.0804.9424 1.0515.2559 2.1283.4535 3.2256.5903h.0051l.4404.0557c2.0545.3243 4.0046.2179 6.2321-.0101l.4379-.0557h.0051c1.0947-.1394 2.169-.3395 3.2179-.5979 1.0514-.2584 2.0774-.5776 3.0754-.9474 5.1298-1.9127 9.5213-5.2693 12.6501-9.5556l.3055-.418.392.3243 6.5479 5.4263.392.3268-.3131.4129-.0051.005c-.8529 1.1172-1.7693 2.1837-2.7469 3.1971-.9751 1.0107-2.0087 1.9683-3.1008 2.8676-4.1242 3.4022-9.0377 6.0293-14.422 7.4707-4.7862 1.2818-10.4226 1.406-15.3258.6662z"/><path d="m14.1754 61.4522-4.44498 3.7391-.40478.342-.30296-.4459c-.35386-.5193-.61354-.8942-.83757-1.221-1.14052-1.6492-1.50457-2.1761-2.75711-4.755l-.52444-1.0792 1.10234.342 5.0687 1.5732 1.8432-4.223.4098-.9373.4736.9044c.7102 1.3578 1.1583 2.1862 1.6547 2.9361.4965.7498 1.0667 1.4566 2.0265 2.5814l.3411.4002-.392.3471-1.2551 1.1147-.3539.3141-.3207-.3496c-.3106-.3395-.583-.6612-.8503-.9855-.1553-.1874-.3132-.385-.4786-.5953m-4.65633 2.5814 4.41703-3.7163.3767-.3192 2.0927 1.5073c-.779-.9221-1.2882-1.5732-1.7592-2.2825-.4073-.613-.7713-1.2514-1.2398-2.1279l-1.614 3.6986-.1782.4104-.4099-.1267-4.36607-1.3553c.81721 1.6188 1.2169 2.1938 2.13848 3.5314.16548.2406.34878.5041.53972.7802z"/><path d="m60.3558 60.3179 4.445 3.696c.1909-.2761.3437-.5193.5117-.76.9241-1.3375 1.3213-1.9126 2.1385-3.5314l-4.3635 1.3528-.4099.1267-.1782-.4104-1.6141-3.6986c-.4684.879-.8324 1.5149-1.2398 2.1305-.4709.7093-.9801 1.3578-1.7591 2.2825l2.0926-1.5048.3768.3192zm-.1807 1.0437c-.1655.2102-.3819.499-.5372.6865-.2673.3242-.5397.646-.8503.9854l-.3208.3496-.3538-.3141-1.2551-1.1146-.3921-.3471.3412-.4003c.9597-1.1222 1.53-1.8315 2.0264-2.5814.499-.7498.9445-1.5782 1.6548-2.9361l.4735-.9043.4099.9373 1.8432 4.223 5.0687-1.5732 1.1023-.342-.5244 1.0792c-1.2526 2.5789-1.6166 3.1058-2.7571 4.7549-.2266.3268-.4863.7018-.8376 1.2211l-.219.3243-4.8777-4.0508z"/><path clip-rule="evenodd" d="m27.4081 82.9551.3259 1.2818 1.2678-.0608-1.054.7245.4456 1.2566-.9751-.8386-.9954.8386.4532-1.2414-1.0616-.7397 1.255.071z" fill-rule="evenodd"/><path clip-rule="evenodd" d="m47.0973 82.9551.3259 1.2818 1.2678-.0608-1.054.7245.4456 1.2566-.9751-.8386-.9928.8386.4506-1.2414-1.0616-.7397 1.2576.071z" fill-rule="evenodd"/><path d="m37.1893 8.31173c-1.0056-.0076-2.085.01014-3.0932.0836l.0128.44839-11.5962 2.24698v-.7245-7.48076-.38l.3437-.11653c4.7759-1.641566 9.5544-2.411685 14.3354-2.3863521 4.776.0253329 9.5494.8435841 14.3228 2.3812921l.3513.11399v8.59036l-11.6344-2.25714-.0051-.38c-1.0056-.08359-2.0315-.13426-3.0371-.14186m-13.6837 1.31731c4.5595-1.63397 9.1216-2.39142 13.6888-2.35849s9.1293.85372 13.6837 2.37622v-6.37374c-4.5646-1.43638-9.1267-2.20143-13.6863-2.22423-4.5595-.0228-9.1216.69412-13.6837 2.21916v6.36361z"/><path d="m53.9305 22.3925 3.6685-5.0741.359.2837 1.3264.9652.4327.3141-.3258.4383-3.4776 4.5801c.4761.456.9598.912 1.4384 1.3655l-.2928.3572c-.1527.1849-.364.4408-.5651.6865-.163.2001-.3234.3952-.5576.6764l-.3233.3901-.3717-.3395c-1.7108-1.5655-1.9806-1.7555-3.4368-2.7891-.2088-.1495-.4634-.3293-.9623-.6865l-.4328-.3091.3156-.4382.9726-1.3478.2342-.347c.6975.3698 1.3238.8461 1.9908 1.2742m3.8111-3.6834-3.6176 5.0362-2.2913-.7372.5245.3724c1.3874.9855 1.7286 1.2286 3.1593 2.5282l-.9088-1.8518.308-.4129 3.4139-4.5017-.5906-.4357z"/><path d="m41.2701 17.3388c.555.0785 1.1125.1748 1.6675.2837.6797.1368 1.3544.2964 2.0239.4814 3.2612.8993 6.2856 2.3483 8.9587 4.2356l4.3406-5.9887c-.5829-.4078-1.1787-.798-1.7846-1.1704-.7663-.4712-1.5427-.9094-2.3294-1.3173-3.9333-2.0342-8.2968-3.3844-12.9225-3.88856l.0483 7.36176zm-.5244.9829-.4583-.0557v-.3141l-.056-8.54735-.0051-.57252.5397.05067c4.9516.46612 9.6207 1.8772 13.8111 4.0457.8248.4255 1.6216.8765 2.3905 1.3477.779.4787 1.5376.9829 2.2759 1.5149l.4379.3116-.3182.4407-4.944 6.8222-.2877.3952-.3869-.2838c-2.6757-1.9556-5.7281-3.4528-9.0351-4.3648-.639-.1773-1.2933-.3319-1.9577-.4661-.6543-.1318-1.3239-.2407-2.0112-.3268zm20.0711-.0304-.3589-.3217-4.4985 5.9329.6263.5675.1757.1621.0992.0912.0051.0051c2.831 2.6245 5.112 5.8113 6.6497 9.3706.387.8968.7256 1.8113 1.0132 2.741.2877.9297.527 1.8848.7154 2.8652.2902 1.5022.4557 3.0475.4837 4.6257l7.6222-.0152c-.1171-7.1084-2.4186-13.7152-6.2831-19.2048-.7816-1.1096-1.6268-2.1735-2.5331-3.1919-.9037-1.0133-1.8686-1.9785-2.8895-2.888-.1451-.1292-.2571-.228-.336-.2964-.0942-.081-.2877-.2533-.499-.4433zm-.1323-1.482.0127.0102c.0814.0684.4404.3926.7561.6738l.4862.4358c.1502.1292.2674.233.3463.3039 1.0463.9348 2.0366 1.9253 2.9684 2.9716.9292 1.0437 1.7999 2.1406 2.6069 3.2857 4.0809 5.7961 6.4714 12.8057 6.4816 20.3473v.5193h-.4939l-8.6073.0178h-.4939v-.5219c0-1.6872-.1604-3.3389-.471-4.9399-.1782-.9297-.4099-1.8468-.6899-2.7486-.2801-.9019-.6034-1.7809-.9725-2.6296-1.4791-3.4224-3.6711-6.4877-6.3976-9.0159l-.1019-.0963-.1756-.1596c-.3412-.309-.886-.803-.9878-.8942l-.3666-.3268.3004-.3978 5.112-6.7461.2978-.3927.3819.304z"/><path d="m65.6613 44.3144 6.3747.0304-.0305.461-.0153.3977c-.1222 3.0172-.1375 3.42-.7434 6.7183l-.2189 1.1881-.667-.9804-3.1416-4.6105-3.9205 2.1178-.8681.4687.1553-1.0184c.4608-3.002.4175-3.6961.2265-6.6372l-.0051-.0684-.0331-.5295.5016-.0279 1.7464-.0937.4684-.0253.0484.4965c.0458.4712.0738.9019.0942 1.3274.0127.2508.0204.5092.028.7828m5.336.9981-5.8121.0482-.4277.005-.9266-2.5206c.1476 2.3256.1807 3.2274-.1197 5.401l3.4394-1.8569.3768-.2052.2469.3648 2.7164 3.9899c.3768-2.1558.4099-2.8145.5066-5.2211z"/><path d="m20.4172 22.3925-3.6685-5.0741-.3589.2837-1.3264.9652-.4328.3141.3259.4383 3.4776 4.5801c-.4761.456-.9598.912-1.4384 1.3655l.2927.3572c.1528.1849.3641.4408.5652.6865.1629.2001.3233.3952.5575.6764l.3234.3901.3716-.3395c1.7108-1.5655 1.9807-1.7555 3.4369-2.7891.2087-.1495.4633-.3293.9623-.6865l.4328-.3091-.3157-.4382-.9725-1.3478-.2342-.347c-.6976.3698-1.3238.8461-1.9908 1.2742m-3.8111-3.6834 3.6176 5.0362 2.2912-.7372-.5244.3724c-1.3875.9855-1.7286 1.2286-3.1594 2.5282l.9089-1.8518-.3081-.4129-3.4139-4.5017.5906-.4357z"/><path d="m33.0777 17.3388c-.555.0785-1.1125.1748-1.6675.2837-.6797.1368-1.3544.2964-2.0239.4814-3.2612.8993-6.2856 2.3483-8.9587 4.2356l-4.3406-5.9887c.583-.4078 1.1787-.798 1.7846-1.1704.7663-.4712 1.5427-.9094 2.3294-1.3173 3.9333-2.0342 8.2968-3.3844 12.9225-3.88856l-.0483 7.36176zm.5244.9829.4583-.0557v-.3141l.056-8.54735.0051-.57252-.5397.05067c-4.9516.46612-9.6206 1.8772-13.811 4.0457-.8249.4255-1.6217.8765-2.3906 1.3477-.779.4787-1.5376.9829-2.2759 1.5149l-.4379.3116.3182.4407 4.944 6.8222.2877.3952.3869-.2838c2.6757-1.9556 5.7281-3.4528 9.0351-4.3648.639-.1773 1.2933-.3319 1.9577-.4661.6543-.1318 1.3264-.2407 2.0112-.3268zm-20.0711-.0304.3589-.3217 4.4985 5.9329-.6263.5675-.1756.1621-.0993.0912-.0051.0051c-2.831 2.6245-5.112 5.8113-6.6497 9.3706-.3869.8968-.7255 1.8113-1.01321 2.741-.28768.9297-.52699 1.8848-.71538 2.8652-.29022 1.5022-.4557 3.0475-.4837 4.6257l-7.622153-.0152c.117103-7.1084 2.418523-13.7152 6.283053-19.2048.78157-1.1096 1.62678-2.1735 2.53308-3.1919.90381-1.0133 1.86861-1.9785 2.88951-2.888.1451-.1292.2571-.228.336-.2964.0942-.081.2877-.2533.499-.4433zm.1324-1.482-.0128.0102c-.0814.0684-.4404.3926-.7561.6738l-.4862.4358c-.1502.1292-.2673.233-.3463.3039-1.0463.9348-2.0366 1.9253-2.97092 2.9716-.92922 1.0437-1.79988 2.1406-2.6069 3.2857-4.08094 5.7986-6.4739968 12.8057-6.48418 20.3473v.5193h.493887l8.607383.0178h.49388v-.5219c0-1.6872.16039-3.3389.47095-4.9399.1782-.9297.4099-1.8468.6899-2.7486.2801-.9019.6034-1.7809.9725-2.6296 1.4792-3.4224 3.6711-6.4877 6.3977-9.0159l.1018-.0963.1731-.1596c.3411-.309.886-.803.9878-.8942l.3666-.3268-.303-.3978-5.112-6.7461-.2978-.3927-.3819.304z"/><path d="m8.68623 44.3144-6.37471.0304.03055.461.01528.3977c.1222 3.0172.13747 3.42.74337 6.7183l.21894 1.1881.66701-.9804 3.14152-4.6105 3.92051 2.1178.8682.4687-.1553-1.0184c-.4608-3.002-.4175-3.6961-.2266-6.6372l.0051-.0684.0331-.5295-.5015-.0279-1.74647-.0937-.46843-.0253-.04837.4965c-.04583.4712-.07383.9019-.0942 1.3274-.01273.2508-.02036.5092-.028.7828m-5.33602.9981 5.81209.0482.42769.005.92671-2.5206c-.1477 2.3256-.1808 3.2274.1196 5.401l-3.43937-1.8569-.37678-.2052-.24694.3648-2.71638 3.9899c-.37678-2.1558-.40988-2.8145-.50662-5.2211z"/><path d="m60.7428 69.1895-2.2582-2.3509 1.1227-1.0691.4379.456-.6415.6105.4149.4307.5932-.5649.4532.4712-.5932.5649.4913.5117.6416-.6105.4582.4788-1.1227 1.069zm-1.917 1.6593-2.029-2.551.5448-.4282 1.6853 1.2312c-.2266-.2508-.4226-.4687-.583-.6561-.1604-.1849-.2953-.3445-.3997-.4763l-.3182-.4002.4684-.3674 2.029 2.5511-.5473.4306-1.7261-1.2742c.1859.195.3641.3876.5321.5776s.3259.3774.4735.5649l.3437.4306-.471.3699zm-3.9944-1.1653.5499-.3927 1.1914 1.6568c.1808.2508.3055.3952.3768.4357s.14.0355.2113-.0152.0993-.1165.0815-.1976-.1146-.2457-.2928-.4915l-1.1914-1.6567.5371-.3826 1.2144 1.6872c.1375.19.2342.3395.2877.4433.0534.1039.0891.2052.1043.2964.0306.1571.0128.3015-.0509.4332-.0636.1292-.1807.2559-.3487.3749-.1553.1115-.3005.1748-.4354.1926-.1349.0177-.2724-.0101-.4124-.0836-.0993-.0532-.2037-.1368-.3131-.2508-.107-.114-.2699-.3243-.4888-.6257l-1.0234-1.4237zm-.2011 3.9164-1.6497-2.8069.5677-.3293c.2088-.1216.3692-.2001.4812-.2381s.2164-.0507.3131-.0431c.1273.0101.252.0634.3717.1622.1196.0962.2317.233.3335.4053.168.2837.2291.5396.1833.7625s-.196.4104-.4506.5598l-.2037.1191.6314 1.0741-.5805.3369zm-.359-1.9379s.0204-.0076.0306-.0127c.0127-.0051.028-.0127.0483-.0253.1146-.0659.1808-.147.1961-.2382.0152-.0912-.0153-.2052-.0968-.3394-.0662-.1115-.14-.1774-.224-.1951s-.1884.0101-.3157.0836l-.0509.0279.4099.6992zm-2.4109 3.3971-.5269-1.2743-1.3239-1.4819.6645-.2711.6492.8461-.1375-1.0563.6721-.2736.1095 1.981.5269 1.2742-.6313.2584zm-2.0672.7777-.891-2.4649-.5041.1799-.2138-.5928 1.6624-.5953.2139.5953-.5296.19.8911 2.4649-.6289.2254zm-1.6725.5599-.9649-3.1058.639-.1976.9648 3.1058zm-2.5688-.4738.5932-.152.0229.0912c.0458.1748.0942.2914.1502.3522.0535.0608.1248.081.2088.0608.0687-.0178.1145-.0583.14-.1216.0254-.0634.0254-.1419 0-.2356-.0407-.152-.1731-.2762-.4022-.3674-.0382-.0152-.0662-.0278-.0866-.0354l-.0356-.0152c-.3106-.1318-.5118-.2407-.6009-.3243-.0661-.0633-.1222-.1418-.1705-.2305-.0484-.0887-.0891-.19-.1171-.304-.0713-.2736-.0586-.5092.0407-.7017.0993-.1926.2724-.3218.5168-.3851.2673-.0684.4913-.0456.6721.0735.1807.1165.308.3217.3844.613.0026.0127.0076.0304.0127.0507.0051.0228.0077.038.0102.0507l-.5804.1494-.0102-.038c-.0356-.1368-.0815-.2356-.1375-.2964s-.1196-.081-.1909-.0633c-.0611.0152-.1044.0532-.1273.1115-.0255.0582-.0255.1292-.0051.2102.0356.1343.1757.2483.4252.342.0458.0178.0814.033.1043.0431.0204.0051.0484.0177.084.0329.2674.1039.4481.2052.5423.3015.0586.0608.1095.1368.1553.2229s.0815.1849.1095.2913c.0814.3142.0738.5751-.0255.7828-.0993.2078-.2826.3446-.5499.413-.28.0709-.5117.0456-.695-.0811s-.3157-.3521-.3997-.6739c-.0051-.0202-.0102-.043-.0153-.0633-.0051-.0228-.0127-.0583-.0229-.1089zm-2.1104 1.6391-.5296-3.2097.7409-.1216c.2418-.0405.42-.0557.5346-.0481.1145.0076.2113.038.2902.0886.0916.0634.168.1444.2266.2483.0585.1039.0993.2305.1247.3825.0306.185.028.3445-.0076.4788-.0357.1343-.1069.2508-.2139.3521.2215.071.3692.2964.443.679v-.1292c.0076.0405.0204.2381.0331.3141.0636.3597.1553.5776.2699.6536l-.7714.1266c-.028-.0633-.0535-.1317-.0739-.2026-.0203-.0709-.0356-.1495-.0509-.2331-.0076-.0506-.0178-.114-.028-.1874-.0102-.0735-.0152-.1216-.0203-.1444-.0331-.1951-.0764-.3268-.135-.3927-.056-.0633-.1451-.0887-.2596-.0684l-.135.0228.2113 1.2844-.6517.1064zm.3436-1.9785s.0255-.0026.0433-.0051c.0178 0 .0306-.0025.0408-.0051.1349-.0228.2291-.0684.2749-.1418.0458-.071.0585-.1824.0331-.3293-.0229-.1368-.0662-.2306-.1324-.2787s-.168-.0608-.3029-.0405c-.0077 0-.023.005-.0382.0076-.0179.005-.0306.0076-.0433.0101l.1298.7802zm-2.6018 2.2495-.3768-3.2299 1.5428-.1773.0738.6282-.8834.1014.0688.5927.8146-.0937.0764.6485-.8147.0938.0815.7042.8834-.1013.0764.6561zm-1.9806.1419-.7103-3.2375.7052-.0152.2851 1.7023c.0127.076.028.1748.0458.3015.0179.1241.0331.2584.051.4028l.0051-.0405c.0254-.3395.0432-.5599.056-.6612l.2138-1.7176.7052-.0152-.5779 3.2654-.779.0177zm-1.8585-.0228.0713-3.2502.6696.0152-.0713 3.2502zm-2.5407-.1191.2266-3.2451.6925.0481.4149 2.0393c0-.3369.0051-.6308.0102-.8765.0051-.2432.0153-.4509.028-.6206l.0357-.5092.5957.0405-.2266 3.2426-.6976-.0481-.4149-2.1001c.0051.271.0076.532 0 .7828-.0051.2533-.0153.499-.0306.7346l-.0382.5472-.5982-.0405zm-2.141-3.5212.6721.0785-.2368 2.0241c-.0356.3065-.0407.4965-.0152.5751.0254.0759.0814.119.1654.1292.0866.0101.1528-.0203.1935-.0913.0433-.0709.0815-.2583.1146-.5573l.2367-2.0241.6569.076-.2419 2.0621c-.028.2331-.056.4079-.0866.5194-.0305.1139-.0712.2102-.1222.2913-.084.1368-.1934.233-.3309.2862-.1349.0532-.3055.0684-.5117.0431-.1884-.0228-.3386-.0709-.4506-.1495-.112-.0785-.1935-.19-.247-.3369-.0382-.1064-.0585-.2356-.0611-.3952 0-.157.0179-.4205.0611-.7904l.2037-1.7378zm-4.4501 2.4471.8198-3.1489.6466.1672-.308 1.1882.5193.1342.3081-1.1881.6313.1621-.8197 3.1489-.6314-.1621.3386-1.3072-.5194-.1343-.3385 1.3072zm-.9521-1.5833.6288.1925c-.0051.0178-.0102.0406-.0153.0608-.0051.0203-.0152.0532-.0305.0963-.1171.38-.2775.6384-.4812.7777-.2036.1394-.4557.1622-.7561.0684-.1782-.0557-.3182-.1342-.4251-.2406-.1044-.1064-.1757-.2407-.2113-.4003-.0229-.114-.0204-.2609.0076-.4382.0306-.1799.1018-.456.2189-.8284.1171-.375.2139-.6435.2903-.8082.0763-.1646.1578-.2862.2418-.3673.1197-.1114.2521-.1824.3972-.2102.1476-.0304.3055-.0178.4811.0354.2979.0912.4939.2559.583.4889.0917.2356.0789.5396-.0382.9171l-.0102.0304-.6186-.1925c.0637-.2103.0891-.3648.0738-.4636-.0127-.0988-.0662-.1622-.1604-.19-.1018-.033-.1909 0-.2596.0912-.0713.0912-.1757.3622-.3132.8081l-.0178.0583c-.1502.4788-.2215.7802-.2164.8993.0051.119.056.195.1604.228.0968.0304.1757.0101.2393-.0558.0637-.0684.1273-.2077.1935-.4205l.0433-.1368zm-3.5667.0127 1.2424-3.007 1.4358.5877-.2419.5827-.8222-.337-.2292.5523.7587.3116-.2495.6029-.7587-.3116-.2698.6561.8223.337-.2521.613zm-1.642-.7499 1.115-2.3737-.4862-.2254.2698-.5725 1.6013.7447-.2673.5726-.5091-.2356-1.1151 2.3737-.6059-.2812zm-3.3452-1.8569 1.6497-2.8068.5677.3293c.2087.1216.3564.2229.4455.3014.0865.0786.1502.1622.1909.2508.0535.1166.0688.2508.0408.4028-.0255.152-.0891.3142-.191.4864-.168.2838-.3589.4636-.5779.5345-.2189.071-.4557.033-.7103-.1165l-.2036-.1191-.6314 1.0742zm1.5198-1.2615s.0178.0126.028.0202.0255.0178.0458.0304c.1146.0659.2164.0862.303.0532.0866-.0304.1706-.114.2495-.2508.0662-.1114.0865-.2102.0611-.2913-.0255-.0811-.1018-.1596-.2291-.2331l-.051-.0278-.4124.6992zm-3.3732-.0178 1.9043-2.6422 1.2627.9019-.3691.5142-.723-.5142-.3488.4838.667.4763-.3819.5294-.667-.4762-.415.5776.7231.5142-.387.5371-1.2627-.9019zm-.9317-2.8448c.2571-.2939.4557-.5016.5931-.6207.1375-.1191.2622-.2001.3717-.2381.1553-.0558.3081-.0659.4532-.0304.1451.0329.2876.1114.4277.233.14.1216.2367.2508.2902.3902.0509.1368.0611.2862.028.4483-.0229.1166-.084.2508-.1859.4028-.0992.152-.2774.375-.5371.6688-.2571.2939-.4532.4991-.5906.6207-.1375.119-.2623.2001-.3768.2381-.1553.0557-.3055.0659-.4506.0329-.1451-.0329-.2877-.1114-.4277-.2305-.14-.1216-.2368-.2508-.2903-.3901-.0534-.1393-.0636-.2913-.0305-.4509.0229-.114.0866-.2458.1858-.3978.0993-.152.2801-.3749.5372-.6713zm.7357 1.0259.387-.4433c.2367-.2711.3691-.4535.3971-.5447.0255-.0912 0-.1697-.0789-.2381-.0764-.0658-.1604-.081-.247-.0405-.0865.0405-.2494.1925-.4837.4636l-.3869.4433c-.2317.266-.3641.4459-.3921.5396-.0305.0937-.0051.1748.0764.2432.0789.0684.1604.0811.2495.0405.0865-.0405.2495-.1925.4837-.4636zm-1.9246-1.6314.476.4509c-.0127.0152-.0254.0304-.0407.0481-.0153.0178-.0382.0406-.0687.0735-.275.2863-.5347.4484-.7791.4813-.2444.033-.4786-.0582-.7077-.2736-.1349-.1266-.224-.2634-.2724-.4027-.0458-.1419-.0509-.2939-.0102-.451.0306-.1114.0968-.2432.2062-.3901.107-.1469.2953-.3623.5677-.646s.4787-.4813.6238-.5953c.1425-.1115.2698-.1875.3818-.2204.1553-.0456.3055-.0507.4507-.0127.1451.038.2825.1216.4124.2458.2265.2153.3258.4484.3029.6966-.0229.2508-.1731.5193-.4455.8031l-.0229.0228-.4684-.4484c.1502-.1622.2418-.2888.2749-.3826.0306-.0937.0127-.1748-.0585-.2406-.079-.0735-.1706-.0861-.2724-.033-.1044.0507-.3183.2458-.6441.5827l-.0433.0456c-.3488.3623-.5499.6004-.5983.7093-.0509.109-.0356.2002.0408.2736.0738.0684.1527.0887.2367.0558.0866-.033.2062-.1292.3615-.2914l.0993-.1038z"/><path d="m43.8264 86.553-.0637-.5447-.8172.0938-.0611-.5345.583-1.8037.5652-.0659.2062 1.7606.2139-.0253.056.4838-.2139.0254.0637.5446-.5321.0608zm-.056-1.0361-.1324-1.1299-.3182 1.1831zm-2.6273.4838.5143-.0582c.0229.1596.0534.271.0891.3293.0381.0608.0916.0861.1629.0785.0738-.0076.1222-.0481.1476-.119.0255-.071.0281-.1875.0077-.3496-.028-.2331-.0611-.3851-.1018-.4585-.0408-.0735-.1044-.1064-.1884-.0963-.051.0051-.0917.0279-.1197.0633-.0305.038-.0509.0912-.0611.1596l-.4608.0532-.1324-1.5377 1.2806-.1469.0585.5066-.8554.0988.0408.5168c.0611-.0582.1247-.1038.1884-.1368.0662-.0329.1349-.0532.2087-.0633.1884-.0228.3386.0405.4481.19.1095.1469.1833.385.2215.7068.0407.342.0076.6029-.0942.7904-.1019.1849-.2775.2913-.5194.3192-.2342.0278-.4226-.0279-.5651-.1647-.1401-.1368-.2292-.3471-.2623-.6308l-.0051-.0532zm-1.5529-.5877c-.0942-.0633-.1681-.1418-.219-.2356-.0509-.0937-.0814-.2052-.0916-.3344-.0153-.2356.0331-.423.1476-.5649.1146-.1419.2801-.2179.499-.2331s.3946.038.527.1622c.1324.1241.2087.304.224.5396.0102.1292-.0051.2432-.0433.3445-.0381.1013-.0992.1875-.1833.2635.1044.0633.1859.1545.247.2735.0611.1191.0967.261.1095.4256.0178.2686-.0331.4814-.1502.641-.1197.1596-.2954.2457-.527.2609-.2292.0152-.415-.0481-.555-.1875-.14-.1418-.219-.347-.2368-.613-.0127-.1647.0051-.3116.0484-.4383s.112-.228.2088-.304zm.2775.6511c.0101.1393.033.2406.0712.309.0382.0659.0891.0963.1579.0938.0687-.0051.1171-.0406.1451-.109s.0382-.1748.028-.3192c-.0102-.1494-.0331-.2584-.0713-.3217-.0356-.0659-.0891-.0937-.1578-.0912-.0713.0051-.1197.0431-.1477.1115-.028.0709-.0356.1798-.0254.3293zm-.0764-1.2337c.0076.1038.0305.1849.0713.2457.0407.0608.0891.0887.1451.0836.0585-.0051.1043-.038.1349-.1039.0305-.0658.0433-.1494.0356-.2508-.0076-.1038-.0305-.1824-.0687-.2356s-.0891-.0785-.1502-.0734c-.0611.005-.1069.0354-.1349.0937-.0306.0583-.0408.1393-.0331.2407zm-1.6904 2.1507-.0459-1.9607-.4989.0126-.0102-.4357h.028c.1782-.0051.3208-.0481.4277-.1267.1044-.081.1731-.1976.2062-.3521l.3844-.0076.0662 2.8601-.5575.0127zm-2.4084-.0177.0153-.6511.5754.0127-.0153.6511zm-.2164-2.8094-.1985 2.8347-.4787-.0329.0153-.2356c-.056.0937-.1222.1621-.1986.2077-.0763.0456-.1552.0659-.2444.0583-.0738-.0051-.14-.0253-.196-.0583-.0585-.0354-.1044-.081-.1425-.1368-.0408-.0709-.0688-.1596-.079-.2736-.0101-.1114-.0051-.3217.0153-.6282.0331-.4813.0917-.7955.1731-.9399.0815-.1469.2139-.2128.3997-.2001.0789.0051.1477.0304.2037.0735.056.043.1044.1089.1476.195l.0637-.9018.5193.0354zm-.7612 1.1146c-.0662-.005-.1145.0304-.1451.1064-.0305.076-.0534.2457-.0713.5117-.0203.2762-.0203.4484 0 .5194.0179.0709.056.1064.1171.1114.0688.0051.1197-.0329.1528-.114.0331-.081.0611-.2964.084-.646.0127-.1798.0076-.3065-.0127-.3749-.0204-.0709-.0637-.1064-.1248-.1114zm-1.1074 1.6036c-.0636.0101-.1222.0152-.168.0203-.0484.0025-.0891.005-.1222 0-.1044-.0076-.1909-.033-.2597-.076-.0713-.0431-.1196-.1014-.1502-.1748-.0204-.0507-.0305-.114-.0356-.1875-.0051-.076 0-.19.0102-.342l.0178-.2635.0509-.7143-.2011-.0152.0305-.4408.2011.0152.0408-.5878.527.0355-.0408.5877.2495.0178-.0305.4408-.2495-.0178-.0611.8689c-.0128.185-.0102.299.0102.3446.0203.0456.0661.0684.1323.0734h.0586.0178zm-2.4058-.9171.4659.0558c-.0076.1114 0 .1925.028.2482.0255.0532.0713.0862.1375.0938.0509.005.0967-.0076.1349-.038s.0586-.0735.0662-.1292c.0051-.0482 0-.0887-.0204-.1216-.0203-.033-.0662-.076-.14-.1292-.0153-.0127-.0407-.0304-.0738-.0532-.1757-.1216-.2953-.228-.3615-.3243-.0458-.0659-.0789-.1368-.0968-.2204-.0178-.081-.0229-.1646-.0127-.2508.0229-.1925.0993-.3394.2266-.4433.1298-.1013.2902-.1419.4862-.1191.2037.0228.3539.0963.4532.2204.0967.1242.1324.2888.1095.494l-.0051.038-.4557-.0532c.0102-.1064.0051-.1849-.0153-.233-.0204-.0482-.0611-.076-.1197-.0811-.0534-.0051-.0967.0051-.1323.0355-.0357.0278-.0561.0684-.0611.1216-.0102.0937.0585.1874.2036.2837.0204.0127.0357.0228.0458.0304.1986.1342.331.2558.3896.3673.0611.1115.0789.2508.0611.4155-.0255.2128-.1019.3724-.2317.4762-.1299.1039-.303.1444-.5168.1191-.2037-.0228-.3564-.1013-.4557-.2331-.0993-.1317-.1375-.304-.112-.5168l.0051-.0532zm-1.698.4332.4582-2.8043 1.3416.2179-.0891.5446-.7662-.1241-.0841.5142.7078.114-.0917.5624-.7077-.114-.0993.6131.7663.1241-.0942.57z"/></g></svg>