<?xml version="1.0" encoding="utf-8"?>
<!-- Generator: Adobe Illustrator 27.5.0, SVG Export Plug-In . SVG Version: 6.00 Build 0)  -->
<svg version="1.1" id="_x32_" xmlns="http://www.w3.org/2000/svg" xmlns:xlink="http://www.w3.org/1999/xlink" x="0px" y="0px"
	 viewBox="0 0 600 400" style="enable-background:new 0 0 600 400;" xml:space="preserve">
<g>
	<g>
		<path style="fill:#909622;" d="M468.78,315.464c0.606-0.526,1.352-0.822,2.105-1.006c1.854-0.451,3.845-0.335,5.194,1.105
			c0.091-0.837,0.765-1.462,1.463-1.826c1.213-0.633,2.649-0.733,3.917-0.273c1.269,0.461,2.383,1.53,2.994,2.826
			c0.122-3.399,1.645-6.725,4.07-8.884c2.357-2.098,5.836-2.797,8.149-0.688c-0.213-5.565,5.544-9.635,11.205-10.196
			c10.509-1.042,13.446,10.097,15.222,14.004c0,0,13.337,12.124-11.619,12.538c-13.12,0.217-26.473,2.705-39.216-0.58
			c-1.183-0.305-1.948-0.81-2.871-1.669c-0.893-0.831-1.768-1.92-1.71-3.207C467.722,316.77,468.174,315.99,468.78,315.464z"/>
		<path style="fill:#909622;" d="M468.756,318.046c-1.169-0.889-2.776-1.065-4.211-0.753c0.355-1.294,0.54-3.497-0.69-5.035
			c-1.27-1.588-3.906-2.309-4.648-1.75c0.696-0.858,0.582-2.879-0.751-4.178c-1.102-1.076-2.755-0.974-4.208-0.465
			c0.726-1.742,0.054-4.11-2.416-5.688c-2.524-1.613-4.969-1.238-7.011,0.623c0.07-1.62-1.054-3.273-2.639-3.613
			c-1.585-0.34-3.316,1.009-3.42,2.627c-1.53-1.702-3.905-2.604-6.179-2.346c-3.968,0.449-6.356,4.215-5.925,5.283
			c-0.523-1.095-1.914-1.688-3.066-1.303c-1.151,0.383-1.911,1.691-1.672,2.882c0.917,4.579,0.771,15.149,1.017,15.244
			c1.12,0.436,33.998,2.757,47.825,2.245C470.677,320.351,469.925,318.935,468.756,318.046z"/>
		<path style="fill:#909622;" d="M355.643,307.493c-1.169-0.889-2.776-1.065-4.211-0.753c0.355-1.294,0.541-3.497-0.69-5.035
			c-1.27-1.588-3.906-2.309-4.649-1.75c0.697-0.859,0.582-2.879-0.75-4.178c-1.103-1.076-2.755-0.974-4.208-0.465
			c0.726-1.742,0.053-4.11-2.417-5.688c-2.524-1.613-4.968-1.239-7.011,0.623c0.07-1.62-1.054-3.273-2.639-3.613
			c-1.585-0.34-3.317,1.009-3.42,2.627c-1.53-1.702-3.905-2.604-6.179-2.347c-3.968,0.449-6.356,4.216-5.925,5.284
			c-0.523-1.095-1.914-1.688-3.066-1.304c-1.152,0.384-1.911,1.692-1.672,2.882c0.917,4.579,0.771,15.148,1.017,15.244
			c1.12,0.436,33.998,2.757,47.824,2.245C357.564,309.797,356.812,308.382,355.643,307.493z"/>
		<path style="fill:#9EA628;" d="M521.939,298.03c-3.176,0.245-5.903,2.556-7.474,5.328c-1.569,2.772-2.173,5.973-2.693,9.116
			c-0.62-1.847-2.021-3.483-3.761-4.359c-1.74-0.876-3.936-0.894-5.594,0.129c-1.658,1.023-2.639,3.123-2.175,5.015
			c-2.827-0.919-6.334,0.122-7.8,2.708c-1.467,2.585-0.856,6.165,1.384,8.119c9.397,8.197,24.737,4.664,37.147,5.883
			C540.652,322.785,534.161,297.092,521.939,298.03z"/>
		<path style="fill:#9EA628;" d="M444.767,314.622c-0.596-0.557-1.348-0.892-2.114-1.114c-1.884-0.547-3.94-0.535-5.407,0.833
			c-0.049-0.84-0.709-1.5-1.408-1.9c-1.216-0.695-2.688-0.87-4.018-0.477c-1.331,0.395-2.536,1.404-3.235,2.667
			c0.057-3.402-1.332-6.802-3.713-9.085c-2.314-2.218-5.858-3.097-8.353-1.112c0.345-3.693-2.187-7.446-5.596-8.293
			c-3.409-0.848-7.192,1.403-8.432,4.873c-7.828-2.969-17.061-0.693-22.555,5.919c-1.269-0.892-2.936-1.114-4.374-0.583
			c-1.437,0.533-2.299,1.547-2.768,3.082c-0.329-2.582-0.865-5.272-2.471-7.244c-1.606-1.972-4.224-3.087-6.214-1.558
			c-0.444-4.005-2.978-7.678-6.443-9.341c-1.682-0.807-3.623-1.156-5.39-0.588c-1.766,0.567-3.602,2.491-3.813,4.434
			c-2.049-1.714-5.033-2.065-7.386-0.868c-2.355,1.196-3.964,3.881-3.985,6.647c-0.004,0.448,0.083,0.9,0.402,1.194
			c-2.903-0.348-5.821,1.013-7.989,3.089c-2.168,2.076-3.678,4.808-4.944,7.597c-0.677,1.492-1.309,3.113-1.093,4.753
			c24.806,7.204,51.258,0.724,76.929,2.439c13.496,0.901,27.111,4.081,40.406,1.465c1.234-0.243,2.049-0.707,3.045-1.516
			c0.965-0.784,1.924-1.826,1.934-3.114C445.786,315.981,445.363,315.179,444.767,314.622z"/>
	</g>
	<g>
		<g>
			<linearGradient id="SVGID_1_" gradientUnits="userSpaceOnUse" x1="337.2088" y1="244.9684" x2="538.0002" y2="246.5921">
				<stop  offset="0" style="stop-color:#F3AA28"/>
				<stop  offset="1" style="stop-color:#ADBD31"/>
			</linearGradient>
			<path style="fill:url(#SVGID_1_);" d="M427.082,287.152c-5.889-6.257-10.641-13.957-11.705-22.346
				c-1.2-9.458,2.336-18.606,3.645-27.948c0.91-6.496,4.466-34.029,11.701-32.56c7.753,1.573,11.991,32.567,12.148,35.856
				C444.086,265.674,438.993,288.066,427.082,287.152z"/>
			<path style="fill:#BB9E2D;" d="M442.869,240.154c-0.156-3.289-4.394-34.282-12.147-35.855c-0.559-0.113-1.088-0.002-1.604,0.208
				c6.582,4.131,9.853,30.688,9.955,33.645c0.833,24.218-3.323,41.529-14.608,40.512c-1.937,0.069-3.799-1.07-5.471-2.842
				c2.117,4.112,4.902,7.945,8.089,11.331C438.993,288.066,444.086,265.674,442.869,240.154z"/>
			<g>
				<path style="fill:#77694A;" d="M428.118,256.14c0,0,0.075,4.182,0.188,10.457c0.208,6.275,0.037,14.638-0.051,23.001
					c-0.192,16.726-0.384,33.453-0.384,33.453l-1.948-0.021c0,0,0.216-16.726,0.432-33.452c0.116-8.363,0.148-16.727,0.51-22.996
					c0.265-6.271,0.443-10.451,0.443-10.451L428.118,256.14z"/>
				<polygon style="fill:#77694A;" points="423.251,267.207 427.819,276.185 426.64,276.732 422.748,267.44 				"/>
				<path style="fill:#77694A;" d="M426.415,283.585c0,0,1.099-1.978,2.681-3.517c1.544-1.595,3.459-2.666,3.459-2.666l0.166,0.254
					c0,0-1.744,1.266-3.026,2.944c-1.337,1.653-2.127,3.584-2.127,3.584L426.415,283.585z"/>
			</g>
		</g>
		<g>
			
				<linearGradient id="SVGID_00000034085516921490220910000014895171552441674934_" gradientUnits="userSpaceOnUse" x1="337.278" y1="236.6049" x2="538.0655" y2="238.2285">
				<stop  offset="0" style="stop-color:#F3AA28"/>
				<stop  offset="1" style="stop-color:#ADBD31"/>
			</linearGradient>
			<path style="fill:url(#SVGID_00000034085516921490220910000014895171552441674934_);" d="M383.355,186.439
				c-7.161-1.134-9.361,21.912-10.887,28.413c-1.133,4.829-3.029,9.442-4.435,14.198c-4.298,14.537-3.627,31.188,4.881,43.734
				c3.264,4.813,7.526,10.747,9.075,14.758c9.305-7.801,13.384-9.658,14.536-32.691
				C397.337,238.614,393.277,188.011,383.355,186.439z"/>
			<path style="fill:#D19F2E;" d="M383.355,186.439c-0.253-0.04-0.486,0.016-0.727,0.034c7.208,6.333,9.36,48.887,8.433,63.087
				c-1.398,21.407-8.879,26.668-11.855,26.397c-2.506,0.228-6.569-3.254-9.772-9.649c0.984,2.24,2.091,4.428,3.48,6.476
				c3.264,4.813,7.526,10.747,9.075,14.758c9.305-7.801,13.384-9.658,14.536-32.691C397.337,238.613,393.278,188.01,383.355,186.439
				z"/>
			<g>
				<path style="fill:#77694A;" d="M381.023,245.11c0,0,0.484,4.662,0.705,11.662c0.261,6.999,0.278,16.336,0.448,25.67
					c0.12,9.335,0.24,18.671,0.33,25.672c0.02,7.002,0.034,11.67,0.034,11.67l-1.948,0.025c0,0-0.103-4.667-0.256-11.668
					c-0.085-7.002-0.197-16.337-0.309-25.672c-0.063-9.336-0.278-18.67-0.191-25.674c0.046-7.003,0.414-11.676,0.414-11.676
					L381.023,245.11z"/>
				<path style="fill:#77694A;" d="M376.192,251.67c0,0,1.775,1.879,3.111,4.097c1.378,2.194,2.331,4.608,2.331,4.608l-1.216,0.457
					c0,0-0.775-2.378-1.973-4.569c-1.159-2.218-2.772-4.15-2.772-4.15L376.192,251.67z"/>
				<path style="fill:#77694A;" d="M380.9,276.635c0,0,1.173-2.97,2.777-5.72c1.563-2.78,3.581-5.24,3.581-5.24l0.49,0.373
					c0,0-1.851,2.527-3.228,5.322c-1.421,2.777-2.407,5.732-2.407,5.732L380.9,276.635z"/>
			</g>
		</g>
		<g>
			
				<linearGradient id="SVGID_00000168810423780138311970000016008414585992369049_" gradientUnits="userSpaceOnUse" x1="337.4445" y1="215.9397" x2="538.2338" y2="217.5633">
				<stop  offset="0" style="stop-color:#FF9A41"/>
				<stop  offset="0.1285" style="stop-color:#FFAD41"/>
				<stop  offset="0.28" style="stop-color:#FFBD41"/>
				<stop  offset="0.4" style="stop-color:#FFC241"/>
				<stop  offset="0.4389" style="stop-color:#F9C342"/>
				<stop  offset="0.6715" style="stop-color:#D9CB45"/>
				<stop  offset="0.8669" style="stop-color:#C5CF46"/>
				<stop  offset="1" style="stop-color:#BED147"/>
			</linearGradient>
			<path style="fill:url(#SVGID_00000168810423780138311970000016008414585992369049_);" d="M405.716,145.526
				c-11.493,0.112-14.107,51.114-15.995,81.775c-0.984,15.97-0.524,32.338,4.655,47.543c1.625,4.77,5.068,9.178,8.787,12.595
				c11.975-5.528,21.044-27.986,20.252-56.343C422.927,213.657,421.821,145.232,405.716,145.526z"/>
			<path style="fill:#D1922E;" d="M423.414,231.096c-0.474-16.963-1.539-82.143-16.417-85.421
				c9.601,14.347,10.468,59.859,10.871,73.096c0.782,25.708-12.652,50.968-20.012,51.079c-2.116,0.102-4.658-3.305-6.571-6.847
				c0.762,4.006,1.769,7.963,3.09,11.842c1.625,4.771,5.068,9.178,8.786,12.595C415.138,281.911,424.207,259.452,423.414,231.096z"
				/>
			<g>
				<path style="fill:#8A794D;" d="M405.193,232.725c0,0-0.21,5.588-0.754,13.897c-0.523,8.315-1.039,19.42-0.719,30.526
					c0.121,5.548,0.473,11.095,0.803,16.316c0.146,2.565,0.371,5.184,0.347,7.57c0.014,2.395,0.027,4.659,0.039,6.749
					c0.018,8.36,0.03,13.933,0.03,13.933l-1.948,0.022c0,0-0.11-5.572-0.274-13.93c-0.034-2.09-0.07-4.354-0.108-6.747
					c0.033-2.407-0.178-4.825-0.318-7.476c-0.312-5.208-0.646-10.788-0.749-16.385c-0.226-11.182,0.148-22.378,0.959-30.727
					c0.771-8.36,2.044-13.824,2.044-13.824L405.193,232.725z"/>
				<path style="fill:#8A794D;" d="M402.695,248.542c0,0,1.267-2.891,3.079-5.411c1.767-2.56,3.899-4.792,3.899-4.792l0.239,0.204
					c0,0-1.937,2.387-3.458,5.022c-1.576,2.62-2.558,5.473-2.558,5.473L402.695,248.542z"/>
				<path style="fill:#8A794D;" d="M394.711,249.004c0,0,2.63,3.003,4.694,6.43c2.12,3.396,3.614,7.122,3.614,7.122l-1.208,0.476
					c0,0-1.329-3.686-3.284-7.08c-1.903-3.426-4.392-6.482-4.392-6.482L394.711,249.004z"/>
				<path style="fill:#8A794D;" d="M401.856,275.232c0,0,1.854-3.33,3.993-6.498c2.103-3.198,4.686-6.028,4.686-6.028l0.412,0.358
					c0,0-2.405,2.915-4.322,6.168c-1.953,3.226-3.629,6.62-3.629,6.62L401.856,275.232z"/>
			</g>
		</g>
		<g>
			
				<linearGradient id="SVGID_00000160161347025945263490000015848097458616021391_" gradientUnits="userSpaceOnUse" x1="337.2073" y1="245.3416" x2="537.9958" y2="246.9652">
				<stop  offset="0" style="stop-color:#F3AA28"/>
				<stop  offset="1" style="stop-color:#ADBD31"/>
			</linearGradient>
			<path style="fill:url(#SVGID_00000160161347025945263490000015848097458616021391_);" d="M516.809,253.497
				c-4.046-42.708-4.566-53.183-11.274-53.782c-7.503-0.669-15.516,48.911-13.302,66.884c1.24,10.069,4.911,20.189,12.35,27.088
				c5.622-2.776,9.955-8.897,11.245-15.034C517.117,272.517,517.4,259.74,516.809,253.497z"/>
			
				<linearGradient id="SVGID_00000160902165975109169910000010008301855850604424_" gradientUnits="userSpaceOnUse" x1="362.7417" y1="245.5483" x2="535.0497" y2="246.9417">
				<stop  offset="0" style="stop-color:#7B5714"/>
				<stop  offset="1" style="stop-color:#ADBD31"/>
			</linearGradient>
			<path style="fill:url(#SVGID_00000160902165975109169910000010008301855850604424_);" d="M516.809,253.497
				c-4.046-42.708-4.566-53.183-11.274-53.782c-0.489-0.044-0.98,0.148-1.471,0.509c5.55,1.549,6.033,11.936,9.107,47.654
				c0.479,5.557-0.021,16.936-1.405,22.405c-1.383,5.468-6.458,14.063-11.396,13.425c-1.676-0.216-3.439-2.101-5.09-4.75
				c2.04,5.555,4.972,10.714,9.302,14.73c5.622-2.777,9.955-8.898,11.245-15.034C517.117,272.517,517.4,259.74,516.809,253.497z"/>
			<g>
				<path style="fill:#77694A;" d="M504.472,249.248c0,0,0.32,4.6,0.513,11.498c0.354,6.899,0.107,16.094,0.084,25.29
					c-0.109,18.392-0.218,36.784-0.218,36.784l-1.948-0.009c0,0,0.053-18.392,0.105-36.785c0.058-9.195-0.108-18.393,0.306-25.288
					c0.253-6.896,0.615-11.493,0.615-11.493L504.472,249.248z"/>
				<path style="fill:#77694A;" d="M499.154,259.439c0,0,2.226,3.458,3.634,7.309c1.483,3.82,2.349,7.823,2.349,7.823l-1.271,0.269
					c0,0-0.705-3.961-2.017-7.752c-1.243-3.827-3.296-7.291-3.296-7.291L499.154,259.439z"/>
				<path style="fill:#77694A;" d="M503.798,284.372c0,0,1.366-3.117,3.268-5.897c1.851-2.824,4.189-5.24,4.189-5.24l0.267,0.237
					c0,0-2.141,2.553-3.752,5.439c-1.671,2.863-2.773,5.962-2.773,5.962L503.798,284.372z"/>
			</g>
		</g>
		<g>
			
				<linearGradient id="SVGID_00000018930873611045874490000000389988400485645739_" gradientUnits="userSpaceOnUse" x1="337.2716" y1="237.3954" x2="538.0602" y2="239.019">
				<stop  offset="0" style="stop-color:#FF9A41"/>
				<stop  offset="0.1285" style="stop-color:#FFAD41"/>
				<stop  offset="0.28" style="stop-color:#FFBD41"/>
				<stop  offset="0.4" style="stop-color:#FFC241"/>
				<stop  offset="0.4389" style="stop-color:#F9C342"/>
				<stop  offset="0.6715" style="stop-color:#D9CB45"/>
				<stop  offset="0.8669" style="stop-color:#C5CF46"/>
				<stop  offset="1" style="stop-color:#BED147"/>
			</linearGradient>
			<path style="fill:url(#SVGID_00000018930873611045874490000000389988400485645739_);" d="M462.817,253.424
				c-1.157-18.407-4.629-64.565-13.254-64.872c-5.412,1.623-5.944,13.518-10.794,51.145c-1.104,8.562-2.208,17.236-1.112,25.8
				c1.095,8.562,4.656,17.145,11.383,22.554C462.312,282.252,463.705,267.547,462.817,253.424z"/>
			<path style="fill:#C29D2F;" d="M462.817,253.424c-1.157-18.407-4.629-64.565-13.254-64.872c-0.528,0.158-0.997,0.448-1.44,0.816
				c6.988,2.199,9.318,42.992,10.066,59.525c0.588,12.979-5.726,31.196-12.205,31.643c-2.151,0.148-3.789-1.312-5.096-3.51
				c1.896,4.252,4.533,8.113,8.153,11.024C462.312,282.252,463.705,267.547,462.817,253.424z"/>
			<g>
				<path style="fill:#8A794D;" d="M449.181,246.324c0,0,0.221,4.844,0.552,12.11c0.352,7.265,0.37,16.956,0.395,26.647
					c0.023,19.382,0.045,38.764,0.045,38.764l-1.948,0.017c0,0-0.134-19.381-0.268-38.763c-0.053-9.691-0.113-19.381,0.18-26.652
					c0.273-7.271,0.455-12.118,0.455-12.118L449.181,246.324z"/>
				<polygon style="fill:#8A794D;" points="453.969,255.651 449.205,267.357 448.017,266.829 453.494,255.441 				"/>
				<polygon style="fill:#8A794D;" points="442.274,266.114 449.151,279.939 447.978,280.496 441.598,266.435 				"/>
			</g>
		</g>
		<g>
			
				<linearGradient id="SVGID_00000139283940935304186910000011015710238527078534_" gradientUnits="userSpaceOnUse" x1="337.3684" y1="225.4426" x2="538.1565" y2="227.0662">
				<stop  offset="0" style="stop-color:#FF9A41"/>
				<stop  offset="0.1285" style="stop-color:#FFAD41"/>
				<stop  offset="0.28" style="stop-color:#FFBD41"/>
				<stop  offset="0.4" style="stop-color:#FFC241"/>
				<stop  offset="0.4389" style="stop-color:#F9C342"/>
				<stop  offset="0.6715" style="stop-color:#D9CB45"/>
				<stop  offset="0.8669" style="stop-color:#C5CF46"/>
				<stop  offset="1" style="stop-color:#BED147"/>
			</linearGradient>
			<path style="fill:url(#SVGID_00000139283940935304186910000011015710238527078534_);" d="M497.573,252.016
				c-1.313-18.684-1.06-85.788-14.861-86.209c-10.148-0.392-15.88,61.2-16.463,67.695c-3.156,35.149,10.571,55.115,16.59,53.87
				C489.612,285.969,499.084,273.522,497.573,252.016z"/>
			<path style="fill:#BBAB2D;" d="M497.573,252.016c-1.313-18.684-1.06-85.788-14.861-86.209c-0.767-0.029-1.5,0.395-2.217,1.023
				c11.931,3.376,9.702,63.427,10.313,80.5c0.719,20.085-8.504,31.379-14.859,32.469c-0.689,0.118-1.478-0.072-2.319-0.538
				c3.264,5.743,6.834,8.602,9.209,8.11C489.613,285.969,499.084,273.522,497.573,252.016z"/>
			<g>
				<path style="fill:#8A794D;" d="M482.848,217.913c0,0,0.085,1.664,0.234,4.575c0.063,2.912,0.152,7.072,0.26,12.063
					c0.11,9.983,0.057,23.293,0.096,36.604c-0.041,26.621-0.081,53.242-0.081,53.242l-1.948-0.002c0,0-0.01-26.621-0.021-53.241
					c0.053-13.31,0.015-26.621,0.137-36.603c0.113-4.992,0.208-9.151,0.274-12.062c0.152-2.912,0.238-4.575,0.238-4.575
					L482.848,217.913z"/>
				<path style="fill:#8A794D;" d="M477.811,227.956c0,0,1.769,3.098,3.037,6.421c1.315,3.306,2.258,6.734,2.258,6.734l-1.256,0.332
					c0,0-0.8-3.411-1.968-6.707c-1.125-3.319-2.744-6.421-2.744-6.421L477.811,227.956z"/>
				<path style="fill:#8A794D;" d="M489.703,238.604c0,0-2.357,4.496-3.928,9.314c-1.636,4.789-2.69,9.747-2.69,9.747l-1.262-0.307
					c0,0,1.24-4.97,3.064-9.758c1.758-4.814,4.297-9.271,4.297-9.271L489.703,238.604z"/>
				<path style="fill:#8A794D;" d="M473.392,258.807c0,0,3.432,4.428,5.738,9.505c2.41,5.022,4.055,10.34,4.055,10.34l-1.241,0.383
					c0,0-1.476-5.3-3.707-10.313c-2.136-5.076-5.383-9.52-5.383-9.52L473.392,258.807z"/>
			</g>
		</g>
		<g>
			
				<linearGradient id="SVGID_00000014625580558112134620000010808885331517912714_" gradientUnits="userSpaceOnUse" x1="337.4617" y1="213.648" x2="538.2522" y2="215.2716">
				<stop  offset="0" style="stop-color:#FF9A41"/>
				<stop  offset="0.1285" style="stop-color:#FFAD41"/>
				<stop  offset="0.28" style="stop-color:#FFBD41"/>
				<stop  offset="0.4" style="stop-color:#FFC241"/>
				<stop  offset="0.4389" style="stop-color:#F9C342"/>
				<stop  offset="0.6715" style="stop-color:#D9CB45"/>
				<stop  offset="0.8669" style="stop-color:#C5CF46"/>
				<stop  offset="1" style="stop-color:#BED147"/>
			</linearGradient>
			<path style="fill:url(#SVGID_00000014625580558112134620000010808885331517912714_);" d="M520.815,283.283
				c-8.751-7.197-13.102-19.224-14.743-30.435c-4.341-29.657,1.401-45.219,3.836-64.702c2.202-17.616,6.478-43.017,15.825-41.027
				c10.948-0.367,15.43,78.37,13.018,104.458C537.12,269.22,528.206,279.848,520.815,283.283z"/>
			<path style="fill:#A9B52D;" d="M525.734,147.119c-0.683-0.145-1.331-0.104-1.961,0.029c9.322,3.431,11.659,72.757,9.028,96.063
				c-1.826,16.176-9.764,27.993-16.904,28.771c-2.164,0.236-4.07-1.335-5.717-3.902c2.43,5.889,5.857,11.275,10.634,15.204
				c7.391-3.437,16.305-14.064,17.936-31.706C541.163,225.49,536.682,146.753,525.734,147.119z"/>
			<g>
				<path style="fill:#8A794D;" d="M523.51,225.656c0,0-0.227,6.291-0.569,15.726c-0.308,9.425-0.671,22.004-0.765,34.604
					c-0.153,12.599-0.259,25.217-0.76,34.68c-0.48,9.462-1.116,15.758-1.116,15.758l-1.941-0.17c0,0,0.528-6.258,0.851-15.684
					c0.372-9.422,0.62-22.009,0.77-34.612c0.209-12.6,0.329-25.226,1.077-34.676c0.667-9.468,1.769-15.689,1.769-15.689
					L523.51,225.656z"/>
				<path style="fill:#8A794D;" d="M516.251,236.16c0,0,1.852,3.651,3.296,7.512c1.476,3.85,2.362,7.894,2.362,7.894l-1.274,0.258
					c0,0-0.662-4.001-1.921-7.865c-1.224-3.869-2.885-7.609-2.885-7.609L516.251,236.16z"/>
				<path style="fill:#8A794D;" d="M529.013,253.741c0,0-2.557,3.565-4.338,7.562c-1.851,3.956-3.015,8.171-3.015,8.171
					l-1.241-0.384c0,0,1.341-4.253,3.371-8.214c1.956-3.999,4.682-7.524,4.682-7.524L529.013,253.741z"/>
			</g>
		</g>
		<g>
			
				<linearGradient id="SVGID_00000065044924229601463410000013378067697875707038_" gradientUnits="userSpaceOnUse" x1="335.7589" y1="217.2502" x2="536.5455" y2="218.8738" gradientTransform="matrix(1 -0.0073 0.0073 1 0.1075 0.3146)">
				<stop  offset="0" style="stop-color:#FF9A41"/>
				<stop  offset="0.1285" style="stop-color:#FFAD41"/>
				<stop  offset="0.28" style="stop-color:#FFBD41"/>
				<stop  offset="0.4" style="stop-color:#FFC241"/>
				<stop  offset="0.4389" style="stop-color:#F9C342"/>
				<stop  offset="0.6715" style="stop-color:#D9CB45"/>
				<stop  offset="0.8669" style="stop-color:#C5CF46"/>
				<stop  offset="1" style="stop-color:#BED147"/>
			</linearGradient>
			<path style="fill:url(#SVGID_00000065044924229601463410000013378067697875707038_);" d="M374.918,240.304
				c-1.315-10.849-2.048-27.18-3.112-38.056c-1.076-10.998-0.39-53.173-10.943-53.095c-11.934,0.088-16.64,16.606-18.92,34.009
				c-2.491,19.013-1.976,39.181-2.051,42.572c-0.902,40.483,12.143,48.1,17.26,55.375
				C364.741,275.456,378.257,267.839,374.918,240.304z"/>
			<path style="fill:#D17C2E;" d="M374.918,240.304c-1.315-10.849-2.049-27.18-3.113-38.056
				c-1.076-10.998-0.39-53.173-10.943-53.095c-0.171,0.001-0.325,0.039-0.493,0.047c7.299,6.364,5.808,37.434,6.466,46.244
				c0.723,9.685,0.952,24.202,1.925,33.871c2.47,24.542-9.81,36.082-18.833,35.637c-1.62-0.08-3.221-0.595-4.75-1.564
				c3.97,9.592,9.164,13.726,11.975,17.722C364.741,275.456,378.257,267.839,374.918,240.304z"/>
			<g>
				<path style="fill:#6B5E46;" d="M358.407,191.896c0,0-0.157,1.989-0.431,5.468c-0.291,3.465-0.723,8.418-0.967,14.382
					c-0.721,11.909-0.892,27.833-0.419,43.756c0.405,15.934,1.212,31.83,1.721,43.8c0.51,11.972-0.051,20.018-0.051,20.018
					l-1.944-0.132c0,0,0.583-7.885,0.12-19.821c-0.464-11.924-1.217-27.877-1.565-43.822c-0.393-15.951-0.241-31.938,0.633-43.894
					c0.881-11.965,2.389-19.818,2.389-19.818L358.407,191.896z"/>
				<path style="fill:#6B5E46;" d="M355.806,271.608c0,0,1.196-5.542,3.257-10.817c1.964-5.325,5.015-10.12,5.015-10.12l0.584,0.358
					c0,0-2.878,4.809-4.669,10.106c-1.889,5.258-2.919,10.757-2.919,10.757L355.806,271.608z"/>
				<path style="fill:#6B5E46;" d="M346.067,233.272c0,0,3.052,3.819,5.573,8.008c2.602,4.14,4.499,8.692,4.499,8.692l-1.207,0.479
					c0,0-1.708-4.49-4.154-8.662c-2.361-4.211-5.264-8.081-5.264-8.081L346.067,233.272z"/>
				<path style="fill:#6B5E46;" d="M354.76,228.707c0,0,1.413-4.362,3.472-8.442c1.984-4.118,4.588-7.876,4.588-7.876l0.379,0.263
					c0,0-2.4,3.833-4.168,7.984c-1.844,4.121-3.033,8.468-3.033,8.468L354.76,228.707z"/>
				<path style="fill:#6B5E46;" d="M350.663,200.943c0,0,1.828,2.511,3.441,5.181c0.809,1.333,1.564,2.708,2.052,3.802
					c0.498,1.085,0.702,1.919,0.702,1.919l-1.27,0.271c0,0-0.114-0.689-0.511-1.75c-0.385-1.058-1.027-2.451-1.731-3.817
					c-1.405-2.738-3.048-5.36-3.048-5.36L350.663,200.943z"/>
			</g>
		</g>
	</g>
	<g>
		<g>
			<path style="fill:#73675C;" d="M378.414,99.794c-0.512-6.29-1.361-12.802-4.746-18.128c-3.385-5.327-10.166-9.039-16.216-7.244
				c1.028-2.51,1.101-5.766-0.929-7.564c-1.167-1.033-2.78-1.367-4.319-1.61c-3.301-0.521-6.759-0.789-9.918,0.302
				c-3.159,1.091-6.124,4.075-6.331,7.41c-0.866-1.092-2.2-1.701-3.524-2.136c-5.042-1.656-10.718-1.286-15.502,1.011
				c-4.784,2.296-8.367,7.057-10.229,12.027c-2.505,0.201-5.021,0.88-7.075,2.327c-2.948,2.077-5.623,6.027-6.875,9.409
				c-0.301,0.813-0.602,1.626-0.904,2.439c-1.957-5.683-6.774-10.565-12.698-11.575c-5.926-1.01-12.765,2.778-14.288,8.593
				c-2.612-2.222-6.233-3.209-9.612-2.62c-3.378,0.59-6.568,2.871-8.274,5.846c-5.071-1.746-10.943,0.704-14.255,4.922
				c-3.312,4.218-3.481,9.375-3.285,14.734c-1.472-0.8-2.969-1.609-4.605-1.971c-5.218-1.156-10.565,2.735-12.597,7.678
				c-2.032,4.944-1.192,10.496,0.091,15.685c-1.852,0.991-3.162,2.932-3.388,5.021c-0.167,1.549,0.078,3.353,0.865,4.739
				c-1.193-1.109-2.855-1.722-4.482-1.578c-2.171,0.192-4.186,1.493-4.935,3.54c-0.024-1.843-0.61-3.732-1.895-5.054
				c-1.285-1.322-3.327-1.965-5.056-1.326c-1.245,0.46-2.075,1.7-2.232,3.006c-0.273-2.841-1.19-5.705-3.556-7.179
				c-2.265-1.409-5.236-1.114-7.7-0.092c-3.394,1.408-6.227,4.119-7.783,7.447c-2.285,4.887-1.85,10.537-1.156,15.887
				c-1.272-3.198-5.338-4.624-8.667-3.747c-3.329,0.877-5.926,3.533-7.724,6.468c-2.55,4.165-3.816,9.104-3.587,13.982
				c-0.277-2.279-3.002-3.793-5.18-3.068c-2.179,0.724-3.466,3.273-3.038,5.528c1.114,5.88-3.41,11.551-3.305,17.534
				c0.105,5.983,2.072,12.194,6.55,16.164c7.001,6.207,17.586,5.301,26.539,8.018c10.677,3.239,18.854,11.622,26.866,19.387
				c14.418,13.973,31.766,27.641,51.842,27.431c9.285-0.097,18.237-3.209,27.364-4.919c17.716-3.318,35.612-4.922,53.19-8.912
				c4.08-0.926,8.055-2.315,11.824-4.133c2.829-1.364,5.599-3.017,7.609-5.43c2.01-2.413,3.165-5.708,2.397-8.753
				c-0.471-1.872-1.75-3.831-3.654-3.517c2.037-1.668,3.597-3.981,4.108-6.564c0.511-2.584-0.104-5.423-1.845-7.399
				c-1.742-1.975-4.49-3.113-7.007-2.339c1.898-0.856,3.734-1.912,5.225-3.366c2.909-2.834,4.279-7.255,3.173-11.163
				c-1.105-3.907-4.225-6.739-8.282-6.891c2.271-1.41,3.884-3.884,4.119-6.547c0.235-2.663-0.971-5.44-3.157-6.978
				c-1.36-0.957-2.698-1.27-4.187-1.478c1.916-0.021,3.849-0.762,5.55-1.713c2.497-1.396,4.898-3.53,5.288-6.365
				c0.341-2.474-0.972-4.28-2.194-6.457c0.659,1.873,2.758,2.836,4.722,3.131c3.402,0.51,6.97-0.412,9.783-2.391
				c2.813-1.98,4.865-4.977,5.832-8.277c0.466-1.589,0.688-3.29,0.319-4.904c-0.369-1.614-1.397-3.132-2.908-3.809
				c-1.478-0.662-2.92-0.202-4.507,0.12c1.277-0.291,2.313-1.208,3.194-2.175c2.389-2.625,4.101-5.975,4.281-9.52
				c0.18-3.545-1.334-7.251-4.262-9.256c-1.56-1.068-3.464-1.623-5.353-1.562c-1.019,0.033-1.962,0.771-2.864,0.297
				c9.647-1.84,17.716-10.139,19.285-19.834C378.905,106.857,378.699,103.305,378.414,99.794z"/>
			<path style="fill:#73675C;" d="M417.797,129.201c-0.964-1.583-2.858-2.374-4.53-1.576c2.572-2.962,2.644-7.66,0.525-10.962
				c-2.119-3.301-6.109-5.167-10.032-5.162c-2.029,0.003-4.087,0.478-5.789,1.58c-1.703,1.101-2.793,2.817-3.132,4.817
				c-2.462-0.627-5.248,0.283-6.867,2.241c-1.618,1.959-1.986,4.867-0.905,7.166c0.556,1.184,1.594,2.266,2.898,2.373
				c-1.422,1.139-2.088,2.85-1.416,4.542c0.674,1.693,2.327,2.901,4.118,3.236c1.791,0.335,3.709-0.104,5.256-1.066
				c0.768,1.593,2.388,2.65,4.094,3.109c1.707,0.458,3.51,0.39,5.27,0.229c1.532-0.14,3.1-0.36,4.444-1.107
				c1.345-0.747,2.179-1.808,2.166-3.346c1.04-0.197,2.107-0.453,2.951-1.092C418.326,133.066,418.76,130.784,417.797,129.201z"/>
			<path style="fill:#73675C;" d="M449.873,79.987c-1.865-2.451-4.558-4.262-7.532-5.063c-2.605-0.702-5.641-0.617-7.647,1.185
				c-0.162-1.493-1.11-2.839-2.361-3.669c-1.252-0.83-2.778-1.182-4.281-1.2c-4.753-0.055-9.121,3.299-10.276,7.909
				c-1.757-1.617-4.717-1.202-6.55,0.329c-1.327,1.109-2.236,2.758-2.287,4.486c-0.052,1.729,0.567,3.58,2.06,4.453
				c-2.698,1.242-4.169,4.477-3.752,7.418c0.417,2.94,2.482,5.491,5.072,6.943c2.59,1.452,5.648,1.902,8.615,1.765
				c2.747-0.127,5.756-0.928,7.234-3.246c-0.409,1.977,1.079,3.569,2.815,4.6c1.736,1.032,3.816,1.276,5.831,1.411
				c1.473,0.098,2.978,0.148,4.401-0.248c2.845-0.79,5.008-3.361,5.702-6.231c0.692-2.87,0.041-5.959-1.383-8.544
				c0.903-0.385,1.835-0.71,2.692-1.188c0.88-0.492,1.748-1.044,2.404-1.81c1.094-1.279,1.487-3.067,1.267-4.737
				C451.677,82.883,450.892,81.327,449.873,79.987z"/>
			<path style="fill:#73675C;" d="M405.036,76.186c-3.138-3.567-6.997-2.664-6.361,1.003c0.249,1.438,1.363,2.607,2.654,3.29
				c1.16,0.614,2.688,0.86,3.72,0.048C406.323,79.525,406.106,77.402,405.036,76.186z"/>
			<path style="fill:#73675C;" d="M213.142,113.638c-1.522-3.224-4.493-3.375-4.796-0.597c-0.119,1.089,0.442,2.164,1.231,2.924
				c0.71,0.685,1.76,1.179,2.674,0.808C213.378,116.315,213.662,114.738,213.142,113.638z"/>
			<path style="fill:#73675C;" d="M226.556,102.583c0.539-4.719-2.72-6.975-5.012-4.042c-0.898,1.15-1.017,2.76-0.658,4.175
				c0.323,1.273,1.166,2.57,2.461,2.791C224.944,105.779,226.372,104.193,226.556,102.583z"/>
			<path style="fill:#73675C;" d="M297.081,81.103c3.075-5.645,0.134-10.13-4.231-7.616c-1.711,0.985-2.679,2.945-2.947,4.9
				c-0.241,1.761,0.156,3.816,1.668,4.751C293.435,84.29,296.031,83.029,297.081,81.103z"/>
			<path style="fill:#73675C;" d="M475.09,118.776c1.138-0.917,1.613-2.442,1.709-3.899c0.163-2.457-0.68-5.058-2.573-6.632
				c-1.893-1.573-4.632-2.434-6.56-0.905c-0.121-1.744-2.282-2.788-3.955-2.283c-3.61,1.088-6.071,8.334-2.721,12.163
				c1.33,1.519,4.903,3.683,7.315,3.55c-2.416,4.166,2.434,8.317,7.488,6.151c1.781-0.763,3.247-2.451,3.055-4.381
				C478.654,120.612,476.922,118.955,475.09,118.776z"/>
			<path style="fill:#73675C;" d="M388.892,137.901c-0.86-0.023-1.556,0.642-1.919,1.423c-0.49,1.053,0.82,2.434,1.701,2.497
				c1.27,0.091,2.903-0.545,2.163-2.463C390.551,138.546,389.753,137.924,388.892,137.901z"/>
			<path style="fill:#73675C;" d="M470.615,97.851c-0.861-0.023-1.557,0.643-1.92,1.424c-0.49,1.053,0.82,2.434,1.701,2.497
				c1.27,0.091,2.904-0.544,2.163-2.463C472.274,98.496,471.476,97.874,470.615,97.851z"/>
			<path style="fill:#73675C;" d="M304.815,69.415c-0.86-0.023-1.556,0.643-1.919,1.424c-0.49,1.053,0.82,2.434,1.7,2.497
				c1.27,0.091,2.904-0.545,2.163-2.463C306.474,70.061,305.676,69.439,304.815,69.415z"/>
			<path style="fill:#73675C;" d="M342.084,49.357c-0.86-0.023-1.557,0.643-1.919,1.424c-0.49,1.054,0.82,2.434,1.7,2.497
				c1.27,0.091,2.904-0.545,2.163-2.464C343.743,50.002,342.944,49.381,342.084,49.357z"/>
		</g>
		<g>
			<path style="fill:#574B44;" d="M289.401,121.45c-0.952-2.913,0.246-6.195,2.309-8.461c2.062-2.267,4.607-3.289,7.395-4.562
				c-2.389,0.306-4.905-0.732-6.383-2.633c-1.478-1.901-1.762-5.516-0.876-7.756c-2.049-5.664-6.761-10.563-12.698-11.575
				c-1.436-0.244-2.924-0.196-4.379,0.083c4.616,0.493,9.25,2.355,12.497,10.424c1.244,3.089,1.221,7.863,0.256,10.039
				c-1.91-2.24-6.511-0.37-8.725,1.625c-2.871,2.586-2.912,9.444-2.659,13.298c-1.243-0.767-3.007-0.553-4.03,0.49
				c-1.023,1.044-1.332,2.894-0.54,4.123c-1.946-3.095-5.378-5.206-9.018-5.546c-3.64-0.34-7.157,1.149-9.643,3.829
				c1.728-0.994,1.991-3.624,1.178-5.678c-0.831-2.101-2.927-4.203-5.847-4.984c1.896,0.98,4.08-0.158,5.481-1.768
				c1.992-2.288,0.232-8.203-3.064-8.829c2.924,6.642-5.397,12.325-11.18,11.412c3.247,1.218,6.478,2.75,7.628,6.601
				c1.162,3.89,0.353,8.315-2.109,11.544c0.088,0.072,0.175,0.145,0.262,0.217c3.046-2.505,7.064-3.802,10.995-3.475
				c4.059,0.338,7.934,2.507,10.528,5.648c0.49-2.035,1.742-4.014,3.689-4.781c1.947-0.768,4.604,0.1,5.212,2.103
				c-0.699-3.496,0.634-7.325,3.353-9.63C281.751,120.904,286.066,120.187,289.401,121.45z"/>
			<path style="fill:#574B44;" d="M335.211,118.407c-0.869-2.223-1.361-4.619-1.149-6.997c0.213-2.378,1.228-4.738,3.051-6.279
				c2.297-1.941,5.543-2.355,8.534-2.047c-1.743-0.501-3.179-2.359-2.933-4.156c0.246-1.797,1.936-3.28,3.749-3.293
				c-2.869-0.521-5.997-2.308-7.594-4.748c-1.597-2.44-1.349-6.196,1.084-7.803c-1.542-0.474-5.195-4.635-4-10.123
				c-0.866-1.092-2.2-1.701-3.524-2.136c-3.692-1.212-7.72-1.314-11.493-0.393c5.533,0.876,11.801,4.241,10.068,15.932
				c-0.963,6.495-4.578,10.473-11.868,12.974c1.458,0.667,3.839,2.513,4.156,4.886c0.601,4.508-1.283,6.852-3.412,8.31
				c2.836-1.089,5.851-1.151,8.689-0.069C331.408,113.548,333.82,115.706,335.211,118.407z"/>
			<path style="fill:#574B44;" d="M230.532,151.596c3.63-5.815,7.88-11.947,7.413-18.786c-0.374-5.488-4.004-11.552-8.516-15.139
				c0.003,0.09-0.001,0.178,0.003,0.268c-1.472-0.8-2.969-1.609-4.605-1.971c-2.864-0.634-5.746,0.282-8.118,2.027
				c9.376-1.989,15.549,4.11,14.735,10.808c-0.599,4.927-5.778,9.559-9.853,7.565c0.195,2.013,0.385,4.089-0.21,6.022
				c-0.971,3.159-4.307,5.507-7.582,5.063c-2.142-0.29-3.902-1.747-4.749-3.592c-0.031,0.165-0.099,0.324-0.117,0.492
				c-0.167,1.549,0.078,3.353,0.865,4.739c-1.193-1.109-2.855-1.722-4.482-1.578c-2.171,0.192-4.186,1.493-4.935,3.54
				c-0.024-1.843-0.61-3.732-1.895-5.054c-1.285-1.322-3.327-1.965-5.056-1.326c-1.245,0.46-2.075,1.7-2.232,3.006
				c-0.273-2.841-1.19-5.705-3.556-7.179c-2.265-1.409-5.236-1.114-7.7-0.092c-1.106,0.459-2.12,1.098-3.083,1.81
				c4.879-0.855,8.291,0.879,10.448,4.387c1.62,2.636,2.169,5.758,1.644,8.806c4.137-7.405,16.036,0.709,9.889,9.781
				c-3.212,4.742-8.839,4.744-11.237,0.367c3.773,8.236-0.857,17.304-8.77,18.678c-6.285,1.091-11.949-2.092-11.852-7.071
				c-3.179,3.809-9.359,4.268-11.957,1.17c-2.407-2.87-1.157-9.852,0.493-13.16c-0.308,0.426-0.634,0.842-0.906,1.286
				c-2.55,4.165-3.816,9.104-3.587,13.982c-0.277-2.279-3.002-3.793-5.18-3.068c-2.179,0.724-3.466,3.273-3.038,5.528
				c1.114,5.88-3.41,11.551-3.305,17.534c0.105,5.983,2.072,12.194,6.55,16.164c0.719,0.637,1.498,1.157,2.287,1.656
				c2.107-0.145,4.213-0.291,6.32-0.436c9.584-0.662,19.373-1.372,28.221-5.115c12.131-5.133,21.315-15.504,28.348-26.64
				C218.263,174.928,223.557,162.77,230.532,151.596z"/>
			<g>
				<path style="fill:#574B44;" d="M288.556,214.461c-1.798,0.085-3.687-0.406-4.984-1.655c-1.297-1.248-2.175-3.128-1.357-4.732
					c-1.132,2.75-3.629,4.925-6.534,5.56c-2.906,0.636-6.135-0.333-8.131-2.538c-1.617-1.786-2.47-4.083-2.145-6.347
					c-0.695,1.416-2.268,2.435-3.856,2.251c-2.14-0.248-4.108-2.016-3.58-4.105c-0.469,2.155-3.078,3.061-5.284,3.075
					c-1.779,0.012-3.648-0.344-5.01-1.488c-1.541-1.293-2.194-3.549-1.582-5.465c0.559-1.753,2.025-3.078,3.61-4.013
					c1.349-0.796,3.328-1.258,4.283-0.017c0.716-2.164-1.358-4.334-3.579-4.847c-2.222-0.513-4.538,0.373-6.473,1.58
					c-4.827,3.012-8.163,8.015-10.12,13.358c-1.957,5.343-2.656,11.055-3.17,16.722c-0.564,6.223-0.896,12.664,1.184,18.556
					c2.372,6.718,7.599,11.967,12.669,16.972c0.675,0.666,1.381,1.352,2.277,1.659c0.822,0.281,1.719,0.214,2.579,0.094
					c6.554-0.914,12.38-4.613,17.566-8.724c11.792-9.346,21.964-21.888,24.883-36.648
					C290.778,214.152,289.672,214.408,288.556,214.461z"/>
			</g>
			<g>
				<path style="fill:#574B44;" d="M304.819,143.151c-0.431-1.063-0.928-2.172-0.124-2.992c-0.331,0.45-0.859,0.712-1.384,0.903
					c-4.26,1.552-9.294-0.741-11.724-4.568c-1.546-2.435-2.084-5.327-2.007-8.229c-0.169,0.775-0.308,1.555-0.578,2.311
					c-0.832,2.326-2.35,4.497-4.541,5.636c-2.192,1.139-4.806,1.612-6.636-0.048c1.122,0.74,1.734,2.107,1.772,3.45
					c0.062,2.172-1.354,4.309-3.379,5.099c-2.024,0.79-3.46,0-5.8-1.073c1.345,1.493,2.102,3.474,1.772,5.495
					c-0.557,3.414-2.63,6.685-5.778,8.119c-1.264,0.575-2.649,0.843-4.034,0.943c-4.306,0.308-9.455-1.003-11.511-4.8
					c1.414,1.762,1.29,4.538-0.194,6.241c-1.484,1.703-3.825,2.368-5.893,1.46c2.59,1.408,4.223,4.382,4.087,7.328
					c-0.137,2.945-2.003,5.73-4.647,7.036c-2.643,1.306-6.549,1.341-9.058-0.208c1.881,9.066,3.792,18.201,5.139,27.361
					c1.071-2.636,2.681-5.165,5.095-6.671c2.415-1.506,5.956-2.579,8.251-0.897c0.044,0.246,0.086,0.493,0.13,0.74
					c-0.251-3.589,1.431-7.257,4.316-9.409c2.883-2.152,6.878-2.72,10.248-1.459c0.138,0.052,0.298,0.134,0.313,0.282
					c0.013,0.147,0.235,0.442,0.24,0.294c-1.177-1.104-1.479-3.03-0.695-4.442c0.783-1.411,2.85-1.87,4.41-1.456
					c-3.608-2.384-4.588-7.408-3.674-11.635c0.539-2.493,1.676-4.942,3.638-6.573c1.968-1.636,4.699-2.31,7.202-1.777
					c2.503,0.533,4.911,2.259,6.042,4.554c-0.16-1.3,0.389-2.666,1.404-3.493c1.016-0.828,2.464-1.09,3.705-0.67
					c1.396,0.473,2.786,1.604,3.6,2.834c-0.725-3.396-0.226-7.04,1.386-10.117c1.612-3.076,4.323-5.56,7.529-6.897
					c1.067-0.445,2.182-0.762,3.294-1.078C305.902,144.478,305.148,143.962,304.819,143.151z"/>
			</g>
			<path style="fill:#574B44;" d="M378.341,110.333c0.563-3.477,0.358-7.029,0.072-10.539c-0.512-6.29-1.361-12.802-4.746-18.128
				c-3.385-5.327-10.166-9.039-16.216-7.244c1.028-2.51,1.101-5.766-0.929-7.564c-1.167-1.033-2.78-1.367-4.319-1.61
				c-0.874-0.138-1.759-0.252-2.646-0.334c2.526,2.388,3.958,5.979,3.906,9.501c-0.053,3.592-1.476,7.032-3.626,9.937
				c3.637-2.56,12.587-1.872,15.973,1.911c5.556,6.207,2.791,17.079-3.543,19.825c2.227,1.638,1.884,5.557,0.225,7.768
				c-1.659,2.212-5.191,2.699-7.387,1.019c2.277,3.008,2.406,7.026,1.178,10.593c-1.228,3.567-3.943,6.507-7.172,8.458
				c-5.805,3.508-11.302,1.887-14.316-1.982c1.189,3.599,1.84,8.014,0.908,11.687c-1.255,4.943-6.757,8.381-11.75,7.342
				c2.029,0.97,3.075,2.56,3.167,4.807c0.092,2.247-1.142,4.499-3.085,5.631c4.482,3.15,5.755,9.561,3.772,14.668
				c-1.983,5.107-7.68,8.491-13.113,7.791c-11.28,24.073-14.389,52.296-8.818,78.354c8.696-1.29,17.376-2.666,25.977-4.618
				c4.08-0.926,8.055-2.315,11.824-4.133c2.829-1.364,5.599-3.017,7.609-5.43c2.01-2.413,3.165-5.708,2.397-8.753
				c-0.471-1.872-1.75-3.831-3.654-3.517c2.037-1.668,3.597-3.981,4.108-6.564c0.511-2.584-0.104-5.423-1.845-7.399
				c-1.742-1.975-4.49-3.113-7.007-2.339c1.898-0.856,3.734-1.912,5.225-3.366c2.909-2.834,4.279-7.255,3.173-11.163
				c-1.105-3.907-4.225-6.739-8.282-6.891c2.271-1.41,3.884-3.884,4.119-6.547c0.235-2.663-0.971-5.44-3.157-6.978
				c-1.36-0.957-2.698-1.27-4.187-1.478c1.916-0.021,3.849-0.762,5.55-1.713c2.497-1.396,4.898-3.53,5.288-6.365
				c0.341-2.474-0.972-4.28-2.194-6.457c0.659,1.873,2.758,2.836,4.722,3.131c3.402,0.51,6.97-0.412,9.783-2.391
				c2.813-1.98,4.865-4.977,5.832-8.277c0.466-1.589,0.688-3.29,0.319-4.904c-0.369-1.614-1.397-3.132-2.908-3.809
				c-1.478-0.662-2.92-0.202-4.507,0.12c1.277-0.291,2.313-1.208,3.194-2.175c2.389-2.625,4.101-5.975,4.281-9.52
				c0.18-3.545-1.334-7.251-4.262-9.256c-1.56-1.068-3.464-1.623-5.353-1.562c-1.019,0.033-1.962,0.771-2.864,0.297
				C368.703,128.327,376.772,120.028,378.341,110.333z"/>
			<path style="fill:#574B44;" d="M413.267,127.626c2.572-2.962,2.644-7.66,0.525-10.962c-0.805-1.254-1.934-2.226-3.173-3.043
				c0.999,1.635,1.449,3.415,1.129,4.965c-0.576,2.788-3.424,4.032-6.368,3.762c2.439,0.444,4.088,5.324,1.263,8.837
				c-3,3.73-8.848,2.986-9.651-0.059c-0.665,2.419-2.191,4.121-4.694,3.948c-3.364-0.235-4.033-2.196-3.605-3.754
				c-0.425,0.897-0.542,1.895-0.142,2.902c0.674,1.693,2.327,2.901,4.118,3.236c1.791,0.335,3.709-0.104,5.256-1.066
				c0.768,1.593,2.388,2.65,4.094,3.109c1.707,0.458,3.51,0.39,5.27,0.229c1.532-0.14,3.1-0.36,4.444-1.107
				c1.345-0.747,2.179-1.808,2.166-3.346c1.04-0.197,2.107-0.453,2.951-1.092c1.478-1.118,1.911-3.401,0.949-4.983
				C416.833,127.618,414.94,126.827,413.267,127.626z"/>
			<path style="fill:#574B44;" d="M446.917,100.83c0.692-2.87,0.041-5.959-1.383-8.544c0.903-0.385,1.835-0.71,2.692-1.188
				c0.88-0.492,1.748-1.044,2.404-1.81c1.094-1.279,1.487-3.067,1.267-4.737c-0.22-1.669-1.005-3.224-2.024-4.564
				c-1.865-2.451-4.558-4.262-7.532-5.063c-2.605-0.702-5.641-0.617-7.647,1.185c-0.162-1.493-1.11-2.839-2.361-3.669
				c-1.252-0.83-2.778-1.182-4.281-1.2c-0.614-0.007-1.188,0.19-1.783,0.292c2.153,0.017,3.499,0.646,4.69,1.539
				c1.624,1.218,2.527,4.724,1.204,6.423c1.207-0.43,2.571-0.558,3.754-0.069c1.183,0.488,2.467,1.71,2.382,2.987
				c3.684,0.951,5.929,7.09,2.503,10.65c-2.963,3.079-9.202,2.962-11.467-0.812c0.812,2.943-0.784,6.518-5.202,6.851
				c-2.95,0.223-4.682-1.398-4.78-2.827c-0.254,1.892-3.717,3.405-6.864,2.571c-3.894-1.031-5.171-4.428-4.406-7.543
				c-0.729,1.376-1.057,2.986-0.838,4.532c0.417,2.94,2.482,5.491,5.072,6.943c2.59,1.452,5.648,1.902,8.615,1.765
				c2.747-0.127,5.756-0.928,7.234-3.246c-0.409,1.977,1.079,3.569,2.815,4.6c1.736,1.032,3.816,1.276,5.831,1.411
				c1.473,0.098,2.978,0.148,4.401-0.248C444.06,106.271,446.223,103.7,446.917,100.83z"/>
			<path style="fill:#574B44;" d="M478.847,122.54c-0.192-1.929-1.925-3.585-3.757-3.764c1.138-0.917,1.613-2.442,1.709-3.899
				c0.148-2.241-0.585-4.563-2.142-6.154c0.717,1.742,1.156,4.047,1.054,5.253c-0.163,1.93-1.012,4.086-2.737,4.965
				c3.623,1.509,3.42,3.814,1.739,4.752c-2.457,1.375-5.841-1.41-4.588-3.985c-3.406-0.244-7.622-1.653-9.628-4.399
				c-0.503-0.688-0.848-1.497-1.034-2.331c0.064,1.551,0.493,3.062,1.527,4.244c1.33,1.519,4.903,3.683,7.315,3.55
				c-2.416,4.166,2.434,8.317,7.488,6.151C477.573,126.158,479.039,124.469,478.847,122.54z"/>
		</g>
		<g>
			<path style="fill:#80756D;" d="M423.349,74.541c-4.028,2.519-3.762,6.473-0.039,6.438c1.459-0.014,2.793-0.924,3.675-2.086
				c0.794-1.046,1.284-2.514,0.65-3.663C426.854,73.811,424.723,73.681,423.349,74.541z"/>
			<path style="fill:#80756D;" d="M301.848,88.071c-4.027,2.519-3.762,6.473-0.039,6.438c1.459-0.013,2.793-0.924,3.675-2.085
				c0.794-1.046,1.284-2.513,0.65-3.664C305.352,87.341,303.222,87.211,301.848,88.071z"/>
			<path style="fill:#80756D;" d="M256.386,96.189c-4.027,2.519-3.762,6.473-0.039,6.438c1.459-0.013,2.793-0.924,3.675-2.085
				c0.794-1.046,1.285-2.513,0.65-3.663C259.89,95.459,257.761,95.329,256.386,96.189z"/>
			<path style="fill:#80756D;" d="M343.776,67.405c-4.405,1.778-4.832,5.719-1.161,6.334c1.439,0.241,2.911-0.423,3.982-1.413
				c0.965-0.892,1.703-2.252,1.279-3.494C347.354,67.297,345.279,66.798,343.776,67.405z"/>
			<path style="fill:#80756D;" d="M340.8,123.42c-4.405,1.778-4.833,5.719-1.161,6.334c1.44,0.241,2.912-0.423,3.983-1.413
				c0.965-0.892,1.703-2.252,1.279-3.494C344.377,123.312,342.303,122.813,340.8,123.42z"/>
			<path style="fill:#80756D;" d="M275.796,163.591c-3.963,2.619-3.598,6.566,0.122,6.438c1.459-0.05,2.769-0.993,3.622-2.177
				c0.768-1.065,1.221-2.545,0.558-3.679C279.281,162.774,277.148,162.698,275.796,163.591z"/>
			<path style="fill:#80756D;" d="M272.278,200.394c-3.962,2.619-3.598,6.566,0.123,6.438c1.458-0.05,2.769-0.993,3.622-2.177
				c0.768-1.065,1.221-2.545,0.558-3.679C275.763,199.576,273.631,199.5,272.278,200.394z"/>
			<path style="fill:#80756D;" d="M300.209,112.866c-4.405,1.778-4.832,5.719-1.161,6.334c1.439,0.241,2.911-0.423,3.982-1.413
				c0.965-0.892,1.702-2.251,1.279-3.494C303.787,112.758,301.712,112.259,300.209,112.866z"/>
			<path style="fill:#80756D;" d="M390.88,120.696c-2.875,1.973-2.727,5.006-0.093,4.941c1.033-0.025,1.986-0.737,2.622-1.638
				c0.572-0.81,0.934-1.941,0.497-2.818C393.367,120.1,391.861,120.022,390.88,120.696z"/>
			<path style="fill:#80756D;" d="M355.972,106.624c-2.875,1.974-2.727,5.006-0.092,4.942c1.033-0.025,1.986-0.737,2.622-1.638
				c0.572-0.811,0.934-1.942,0.497-2.818C358.459,106.029,356.953,105.95,355.972,106.624z"/>
			<path style="fill:#80756D;" d="M289.132,165.074c-2.875,1.974-2.727,5.006-0.092,4.942c1.033-0.024,1.986-0.737,2.622-1.637
				c0.573-0.811,0.935-1.942,0.497-2.818C291.62,164.479,290.113,164.402,289.132,165.074z"/>
			<path style="fill:#80756D;" d="M260.178,188.888c-2.875,1.974-2.727,5.006-0.093,4.942c1.033-0.025,1.986-0.737,2.622-1.637
				c0.572-0.811,0.934-1.942,0.497-2.818C262.665,188.293,261.159,188.214,260.178,188.888z"/>
			<path style="fill:#80756D;" d="M280.744,124.755c-2.875,1.974-2.727,5.006-0.093,4.942c1.033-0.025,1.986-0.737,2.622-1.637
				c0.572-0.811,0.934-1.942,0.497-2.818C283.231,124.159,281.725,124.081,280.744,124.755z"/>
			<path style="fill:#80756D;" d="M267.214,102.294c-2.875,1.974-2.728,5.006-0.093,4.942c1.033-0.025,1.986-0.737,2.622-1.637
				c0.572-0.811,0.934-1.942,0.497-2.818C269.701,101.699,268.195,101.621,267.214,102.294z"/>
			<path style="fill:#80756D;" d="M214.716,139.367c-2.875,1.973-2.727,5.006-0.093,4.941c1.033-0.025,1.986-0.737,2.622-1.637
				c0.572-0.81,0.934-1.941,0.497-2.818C217.203,138.772,215.697,138.694,214.716,139.367z"/>
			<path style="fill:#80756D;" d="M161.263,162.978c-4.012,2.753-3.805,6.984-0.13,6.894c1.441-0.035,2.771-1.028,3.658-2.285
				c0.799-1.131,1.303-2.709,0.694-3.931C164.732,162.148,162.631,162.038,161.263,162.978z"/>
			<path style="fill:#80756D;" d="M467.796,109.043c-4.027,2.519-3.762,6.474-0.039,6.439c1.459-0.013,2.793-0.924,3.675-2.085
				c0.794-1.046,1.284-2.514,0.65-3.664C471.3,108.313,469.17,108.184,467.796,109.043z"/>
			<path style="fill:#80756D;" d="M400.415,114.184c-4.027,2.519-3.762,6.473-0.039,6.438c1.459-0.013,2.793-0.924,3.675-2.086
				c0.794-1.046,1.285-2.513,0.65-3.663C403.92,113.454,401.79,113.325,400.415,114.184z"/>
			<path style="fill:#80756D;" d="M420.16,84.172c-5.729,2.92-5.84,8.284-0.816,8.678c1.969,0.155,3.876-0.914,5.203-2.377
				c1.195-1.316,2.03-3.237,1.311-4.863C424.972,83.604,422.115,83.176,420.16,84.172z"/>
			<path style="fill:#80756D;" d="M317.871,75.513c-5.729,2.92-5.839,8.284-0.816,8.678c1.969,0.155,3.876-0.914,5.204-2.376
				c1.194-1.316,2.029-3.238,1.31-4.864C322.683,74.944,319.826,74.517,317.871,75.513z"/>
			<path style="fill:#80756D;" d="M238.585,100.95c-5.729,2.92-5.84,8.284-0.816,8.678c1.969,0.155,3.876-0.914,5.203-2.377
				c1.195-1.316,2.029-3.238,1.311-4.863C243.396,100.381,240.54,99.954,238.585,100.95z"/>
			<path style="fill:#80756D;" d="M273.493,90.126c-5.729,2.92-5.84,8.284-0.816,8.678c1.97,0.154,3.876-0.915,5.203-2.377
				c1.195-1.316,2.029-3.237,1.311-4.863C278.304,89.557,275.448,89.129,273.493,90.126z"/>
			<path style="fill:#80756D;" d="M218.83,120.433c-5.729,2.919-5.839,8.284-0.816,8.678c1.97,0.155,3.876-0.914,5.204-2.377
				c1.195-1.316,2.029-3.237,1.31-4.863C223.642,119.864,220.785,119.437,218.83,120.433z"/>
			<path style="fill:#80756D;" d="M177.032,146.708c-4.88,4.188-3.724,9.427,1.252,8.626c1.95-0.313,3.551-1.802,4.496-3.535
				c0.851-1.561,1.21-3.624,0.128-5.035C181.574,145.022,178.698,145.28,177.032,146.708z"/>
			<path style="fill:#80756D;" d="M357.386,86.275c-6.293,1.324-7.798,6.473-3.052,8.164c1.861,0.664,3.98,0.129,5.644-0.936
				c1.496-0.959,2.804-2.596,2.534-4.353C362.18,86.982,359.534,85.824,357.386,86.275z"/>
			<path style="fill:#80756D;" d="M344.127,105.488c-6.293,1.324-7.799,6.473-3.052,8.164c1.861,0.664,3.98,0.129,5.643-0.936
				c1.497-0.959,2.804-2.596,2.534-4.353C348.92,106.195,346.274,105.037,344.127,105.488z"/>
			<path style="fill:#80756D;" d="M306.991,148.074c-6.894,2.929-7.456,9.154-1.65,10.018c2.276,0.34,4.578-0.749,6.239-2.341
				c1.495-1.433,2.62-3.598,1.916-5.546C312.628,147.802,309.343,147.075,306.991,148.074z"/>
			<path style="fill:#80756D;" d="M283.989,185.148c-6.894,2.929-7.456,9.154-1.65,10.018c2.276,0.34,4.578-0.749,6.239-2.342
				c1.495-1.433,2.621-3.598,1.916-5.545C289.627,184.875,286.342,184.148,283.989,185.148z"/>
			<path style="fill:#80756D;" d="M310.294,99.867c-5.729,2.92-5.839,8.284-0.816,8.678c1.97,0.155,3.876-0.914,5.204-2.376
				c1.195-1.316,2.029-3.238,1.31-4.864C315.106,99.298,312.249,98.871,310.294,99.867z"/>
			<path style="fill:#80756D;" d="M315.773,119.834c-9.241,4.709-9.419,13.36-1.316,13.996c3.176,0.25,6.251-1.475,8.392-3.833
				c1.927-2.123,3.273-5.222,2.114-7.844C323.533,118.915,318.926,118.227,315.773,119.834z"/>
			<path style="fill:#80756D;" d="M252.101,133.826c-7.828,3.989-7.979,11.318-1.115,11.856c2.69,0.212,5.295-1.25,7.109-3.247
				c1.633-1.798,2.773-4.423,1.791-6.644C258.675,133.048,254.772,132.464,252.101,133.826z"/>
			<path style="fill:#80756D;" d="M304.407,166.107c-9.241,4.709-9.418,13.361-1.316,13.996c3.176,0.25,6.251-1.475,8.392-3.834
				c1.927-2.123,3.273-5.221,2.114-7.844C312.167,165.189,307.56,164.5,304.407,166.107z"/>
			<path style="fill:#80756D;" d="M413.247,80.803c-0.86-0.023-1.556,0.643-1.919,1.424c-0.49,1.053,0.82,2.434,1.7,2.497
				c1.27,0.091,2.904-0.545,2.163-2.464C414.906,81.448,414.107,80.827,413.247,80.803z"/>
			<path style="fill:#80756D;" d="M462.595,107.094c-0.569,0.424-0.68,1.21-0.517,1.901c0.221,0.932,1.774,1.158,2.375,0.749
				c0.869-0.59,1.603-1.834,0.143-2.699C463.999,106.665,463.164,106.67,462.595,107.094z"/>
		</g>
		<g>
			<path style="fill:#73675C;" d="M345.633,158.1c3.927-7.211,0.172-12.94-5.404-9.729c-2.186,1.258-3.422,3.761-3.765,6.259
				c-0.308,2.249,0.199,4.874,2.13,6.068C340.976,162.172,344.294,160.56,345.633,158.1z"/>
			<path style="fill:#73675C;" d="M331.973,199.174c5.458-6.134,3.098-12.564-3.06-10.7c-2.414,0.73-4.185,2.888-5.085,5.243
				c-0.81,2.12-0.91,4.793,0.7,6.393C326.516,202.085,330.111,201.267,331.973,199.174z"/>
			<path style="fill:#73675C;" d="M339.417,165.744c-1.099-0.029-1.988,0.821-2.452,1.818c-0.626,1.345,1.047,3.109,2.172,3.189
				c1.623,0.116,3.709-0.695,2.763-3.146C341.536,166.567,340.516,165.774,339.417,165.744z"/>
			<path style="fill:#73675C;" d="M329.4,103.563c-0.862-0.023-1.559,0.644-1.923,1.426c-0.49,1.055,0.822,2.439,1.704,2.501
				c1.273,0.091,2.909-0.545,2.167-2.467C331.062,104.21,330.262,103.587,329.4,103.563z"/>
			<path style="fill:#73675C;" d="M247.678,181.769c-0.862-0.023-1.56,0.643-1.923,1.426c-0.491,1.055,0.821,2.439,1.704,2.502
				c1.272,0.091,2.909-0.545,2.166-2.468C249.339,182.415,248.54,181.792,247.678,181.769z"/>
			<path style="fill:#73675C;" d="M278.531,150.861c-1.099-0.03-1.988,0.82-2.452,1.818c-0.626,1.345,1.047,3.109,2.172,3.189
				c1.623,0.116,3.709-0.695,2.763-3.146C280.65,151.684,279.63,150.891,278.531,150.861z"/>
			<path style="fill:#73675C;" d="M331.84,215.264c-1.099-0.029-1.988,0.821-2.452,1.818c-0.625,1.345,1.047,3.109,2.173,3.19
				c1.622,0.116,3.708-0.696,2.762-3.146C333.96,216.088,332.94,215.294,331.84,215.264z"/>
			<path style="fill:#73675C;" d="M351.324,141.389c-1.099-0.03-1.988,0.821-2.452,1.818c-0.626,1.345,1.047,3.109,2.172,3.189
				c1.623,0.116,3.709-0.695,2.763-3.146C353.443,142.213,352.423,141.419,351.324,141.389z"/>
			<path style="fill:#73675C;" d="M345.641,224.194c-1.099-0.029-1.988,0.821-2.452,1.818c-0.626,1.345,1.047,3.109,2.172,3.189
				c1.623,0.116,3.709-0.695,2.763-3.146C347.76,225.018,346.74,224.224,345.641,224.194z"/>
			<path style="fill:#73675C;" d="M362.033,159.851c0.398-2.224-0.712-4.247-2.198-5.444c-2.005-1.615-5.427,1.327-5.916,3.59
				c-0.706,3.264-0.041,7.707,4.275,6.416C360.01,163.941,361.634,162.074,362.033,159.851z"/>
			<path style="fill:#73675C;" d="M257.586,177.577c0.295-1.644-0.526-3.141-1.625-4.026c-1.482-1.194-4.013,0.982-4.375,2.655
				c-0.523,2.413-0.031,5.699,3.161,4.745C256.09,180.602,257.291,179.222,257.586,177.577z"/>
			<path style="fill:#73675C;" d="M337.415,97.749c0.294-1.645-0.526-3.141-1.626-4.026c-1.482-1.195-4.013,0.982-4.375,2.655
				c-0.522,2.414-0.03,5.699,3.162,4.744C335.918,100.774,337.119,99.394,337.415,97.749z"/>
			<path style="fill:#73675C;" d="M291.947,146.862c0.398-2.224-0.712-4.247-2.198-5.444c-2.005-1.615-5.427,1.327-5.916,3.59
				c-0.707,3.264-0.041,7.708,4.275,6.416C289.923,150.952,291.547,149.085,291.947,146.862z"/>
			<path style="fill:#73675C;" d="M343.688,208.976c1.196-1.917,0.917-4.208-0.017-5.872c-1.261-2.244-5.531-0.783-6.827,1.135
				c-1.868,2.768-2.902,7.14,1.585,7.545C340.289,212.02,342.491,210.891,343.688,208.976z"/>
		</g>
	</g>
	<g>
		<path style="fill:#F99028;" d="M66.116,322.52c-4.602-24.04-6.765-53.192,1.759-77.141c0,0,2.842,13.8,5.277,22.731
			c0,0,3.653-6.089,7.712-26.79c4.059-20.701,0-40.591,20.701-60.48l-3.247,14.613c0,0,8.93-2.842,23.543-17.86
			c14.612-15.019,22.325-30.443,22.325-30.443s4.871,34.096,0.811,60.48c-4.059,26.384-38.561,116.09-38.561,116.09L66.116,322.52z"
			/>
		<path style="fill:#FFD562;" d="M66.658,263.239c0,0,4.195,33.69,19.213,48.709l-3.382,10.959
			C82.488,322.907,65.575,301.935,66.658,263.239z"/>
		<path style="fill:#FFD562;" d="M94.53,230.766c4.871-11.366,17.589-27.601,28.684-39.238
			c11.095-11.636,14.342-20.025,14.342-20.025s7.036,17.86-4.33,45.191L94.53,230.766z"/>
		<path style="fill:#FFAF41;" d="M136.474,181.246c-10.562,26.364-60.074,39.779-46.901,95.195l38.917-43.692
			C128.49,232.749,137.556,208.036,136.474,181.246z"/>
		<path style="fill:#FFAF41;" d="M67.875,245.379c-8.524,23.948-6.361,53.101-1.759,77.14l17.312,0.515
			C67.859,303.709,65.575,272.71,67.875,245.379z"/>
		<path style="fill:#FFAF41;" d="M82.488,325.749c0,0-6.495-38.967,17.454-70.628c23.948-31.661,54.798-55.203,60.074-81.182
			c0,0,1.624,5.277,0.812,16.236c0,0,8.93-14.207,30.443-32.066c0,0-0.406,26.384-5.277,42.214c0,0,13.395-8.524,25.572-36.531
			c12.178-28.008,38.156-37.343,38.156-37.343s-10.554,17.86-9.336,40.997s8.118,44.65-2.03,64.539c0,0,8.118-10.553,29.225-15.83
			c0,0-17.048,13.8-15.019,37.343c0,0,9.742-8.93,18.266-22.731c8.524-13.801,16.236-39.779,51.55-51.956
			c0,0-10.959,13.8-11.365,35.314c-0.406,21.513,2.435,31.661,2.841,42.62c0,0,8.93-14.207,32.473-20.701
			c0,0-10.554,16.236-14.613,34.908c-4.059,18.672-5.276,23.948-10.553,33.284c0,0,8.118-5.683,12.178-14.207
			c0,0,0.406,18.672-10.148,28.82L82.488,325.749z"/>
		<path style="fill:#FFD562;" d="M270.693,279.204c19.983-22.173,16.981-44.988,25.505-53.309c0,0-1.15,11.636,2.909,22.73
			c4.059,11.095,10.824,28.684,1.623,40.05c0,0,2.435-2.977,9.471-6.224c7.036-3.247,11.704-18.063,14.883-19.754
			c-2.909,11.907,9.268,36.464-22.189,54.122L270.693,279.204z"/>
		<path style="fill:#FFD562;" d="M143.374,274.604c0,0-27.466,16.777-19.889,46.544l7.577,1.353L143.374,274.604z"/>
		<path style="fill:#FFD562;" d="M181.53,244.973c10.147-7.306,17.86-10.147,25.572-20.295c6.775-8.915,11.771-21.513,11.771-21.513
			s9.336,8.93,5.682,23.948c-3.653,15.019-20.701,18.266-20.295,39.779L181.53,244.973z"/>
		<path style="fill:#F99028;" d="M295.809,296.204c5.523-12.635,6.4-27.242,2.428-40.448c-1.196-3.974-3.119-7.452-3.524-11.582
			c-1.319,9.111-5.788,17.597-11.849,24.527c-6.061,6.93-13.662,12.382-21.73,16.817c-4.574,2.515-9.345,5.746-12.661,9.777
			c2.603-8.095,2.706-16.201,0.335-24.367c-1.812,10.59-12.092,17.521-16.717,27.218c-3.041,6.375-3.49,13.764-2.329,20.73
			l72.523-1.066c11.079-12.306,19.809-24.621,20.095-41.177C317.407,287.07,300.577,285.674,295.809,296.204z"/>
		<path style="fill:#FFD562;" d="M251.705,317.79c0,0-1.503-5.411,5.712-11.423c7.215-6.012,15.632-8.717,21.344-15.932
			c0,0-0.902,15.03-5.411,20.742c0,0,2.104-1.803,8.116-3.907c0,0-4.208,8.717-8.116,10.22
			C269.441,318.992,251.705,317.79,251.705,317.79z"/>
		<path style="fill:#FFD562;" d="M211.566,163.792c-12.177,28.008-25.572,36.531-25.572,36.531
			c4.871-15.831,5.277-42.214,5.277-42.214c-21.513,17.86-30.443,32.066-30.443,32.066c0.812-10.959-0.812-16.236-0.812-16.236
			c-5.276,25.979-36.126,49.521-60.074,81.182c-23.949,31.661-17.454,70.628-17.454,70.628l21.018-0.602l2.119-3.456
			c-7.222-11.074-14.883-46.274,6.765-73.334c0,0,0.541,14.071,2.977,18.942c0,0,4.871-20.701,19.077-39.779
			c14.207-19.077,22.731-34.502,22.731-34.502l-0.135,10.959c0,0,12.178-18.943,27.872-32.743c0,0-5.141,31.39-11.636,53.309
			c0,0,20.566-13.53,34.096-36.802c13.53-23.272,11.907-44.379,42.35-61.292C249.722,126.448,223.744,135.784,211.566,163.792z"/>
		<path style="fill:#F99028;" d="M128.355,322.501c0,0-7.306-25.437,15.019-47.897l2.03,12.989c0,0,9.383-18.998,17.454-28.414
			c14.612-17.048,47.491-23.136,51.956-37.343c4.059,14.207-10.959,17.86-11.365,33.69c-0.406,15.831,11.365,45.868,6.9,63.322
			L128.355,322.501z"/>
		<path style="fill:#FFD562;" d="M178.992,321.69c0,0-2.223-12.94,3.877-22.936c11.629-19.06,35.211-20.352,34.242-31.012
			c0,0,6.461,9.045,1.938,25.843c-3.042,11.299-13.245,16.475-16.152,26.166L178.992,321.69z"/>
		<g>
			<path style="fill:#4A403B;" d="M150.775,216.642c0,0-0.287,6.601-0.362,16.461c-0.015,9.874,0.359,23.037,0.891,36.211
				c0.522,13.189,1.044,26.378,1.436,36.27c0.271,9.91,0.149,16.532,0.149,16.532l-2.429-0.061c0,0,0.274-6.566,0.233-16.44
				c0.051-9.876-0.521-23.048-1.153-36.227c-0.613-13.18-0.916-26.399-0.514-36.309c0.256-9.925,1.009-16.481,1.009-16.481
				L150.775,216.642z"/>
			<path style="fill:#4A403B;" d="M138.012,224.038c0,0,1.106,1.071,2.648,2.833c1.502,1.782,3.352,4.297,4.971,6.973
				c1.66,2.657,2.863,5.565,3.702,7.754c0.841,2.195,1.171,3.732,1.171,3.732l-1.558,0.458c0,0-0.506-1.431-1.266-3.577
				c-0.742-2.156-2.031-4.903-3.356-7.643c-2.72-5.463-6.579-10.298-6.579-10.298L138.012,224.038z"/>
			<path style="fill:#4A403B;" d="M172.965,244.474c0,0-2.169,1.755-4.968,4.756c-2.845,2.983-6.16,7.399-8.846,12.176
				c-2.719,4.761-4.758,9.878-5.858,13.83c-1.136,3.945-1.536,6.654-1.536,6.654l-1.6-0.273c0,0,0.429-2.785,1.62-6.825
				c1.155-4.047,3.277-9.273,6.09-14.126c2.859-4.828,6.419-9.193,9.399-12.139c2.976-2.984,5.186-4.652,5.186-4.652
				L172.965,244.474z"/>
			<path style="fill:#4A403B;" d="M134.169,276.116c0,0,5.777,2.815,10.583,7.22c2.336,2.248,4.369,4.834,5.598,6.969
				c1.221,2.141,1.721,3.718,1.721,3.718l-1.51,0.595c0,0-2.416-5.746-6.995-10.071c-2.134-2.267-4.542-4.309-6.432-5.735
				c-1.883-1.454-3.138-2.424-3.138-2.424L134.169,276.116z"/>
			<polygon style="fill:#4A403B;" points="160.334,256.754 165.217,241.953 165.935,242.168 161.646,257.147 			"/>
			<path style="fill:#4A403B;" d="M154.354,267.629c0,0,4.037-3.089,8.445-5.563c4.379-2.54,9.061-4.432,9.061-4.432l0.259,0.585
				c0,0-4.548,2.104-8.735,4.816c-4.231,2.659-8.031,5.875-8.031,5.875L154.354,267.629z"/>
			<polygon style="fill:#4A403B;" points="141.635,282.408 137.099,268.809 137.687,268.59 143.157,281.841 			"/>
			<path style="fill:#4A403B;" d="M138.231,234.291c0,0,2.349,0.613,4.619,1.514c2.28,0.873,4.453,2.026,4.453,2.026l-0.833,1.394
				c0,0-1.951-1.344-4.065-2.448c-2.101-1.129-4.338-2-4.338-2L138.231,234.291z"/>
		</g>
		<path style="fill:#FFD562;" d="M171.111,282.181c5.683,11.906-6.494,21.648-2.977,37.343h-26.249c0,0-2.165-5.954,1.083-14.884
			c0,0,0.27,2.706,3.247,6.495c0,0,0.812-5.683,7.307-11.907C160.016,293.005,168.675,293.005,171.111,282.181z"/>
		<g>
			<path style="fill:#4A403B;" d="M98.832,139.834c0,0-0.408,2.911-1.123,8.006c-0.74,5.096-1.746,12.353-2.65,21.118
				c-1.957,17.504-3.746,40.943-4.097,64.441c-0.151,11.746-0.123,23.495,0.213,34.504c0.335,11.007,0.71,21.283,1.41,30.067
				c0.604,8.79,1.427,16.09,2.046,21.192c0.7,5.093,1.1,8.004,1.1,8.004l-3.456,0.322c0,0-0.395-11.795-1.328-29.419
				c-0.398-8.817-0.961-19.099-1.211-30.129c-0.318-11.029-0.315-22.799-0.152-34.565c0.358-23.533,1.87-47.056,4.092-64.578
				c1.072-8.759,2.166-16.056,3.057-21.115c0.92-5.063,1.446-7.955,1.446-7.955L98.832,139.834z"/>
			<path style="fill:#4A403B;" d="M106.322,154.621c0,0-3.971,4.014-6.875,8.824c-3.013,4.74-4.824,10.048-4.824,10.048l-1.218-0.45
				c0,0,2.016-5.387,5.223-10.122c3.093-4.806,7.229-8.751,7.229-8.751L106.322,154.621z"/>
			<path style="fill:#4A403B;" d="M61.026,169.704c0,0,2.562,2.611,6.077,6.858c3.526,4.224,7.876,10.159,11.666,16.454
				c3.77,6.305,7.018,12.911,9.139,17.998c2.147,5.077,3.314,8.567,3.314,8.567l-1.229,0.422c0,0-1.132-3.463-3.227-8.51
				c-2.068-5.057-5.246-11.63-8.946-17.913c-3.693-6.285-7.856-12.291-11.291-16.552c-3.399-4.279-5.915-6.947-5.915-6.947
				L61.026,169.704z"/>
			<path style="fill:#4A403B;" d="M89.563,253.818c0,0,1.072-3.984,3.523-9.757c2.388-5.766,6.466-13.061,11.368-19.763
				c4.914-6.697,10.554-12.783,14.857-17.241c4.365-4.4,7.274-7.333,7.274-7.333l0.492,0.489c0,0-2.841,2.988-7.102,7.471
				c-4.218,4.518-9.62,10.75-14.443,17.398c-4.857,6.627-8.884,13.816-11.242,19.493c-2.4,5.628-3.49,9.637-3.49,9.637
				L89.563,253.818z"/>
			<path style="fill:#4A403B;" d="M68.928,158.682c0,0,2.337,7,3.808,14.229c1.558,7.213,2.231,14.571,2.231,14.571l-0.85,0.078
				c0,0-0.594-7.317-2.07-14.508c-1.39-7.21-3.647-14.205-3.647-14.205L68.928,158.682z"/>
			<path style="fill:#4A403B;" d="M66.536,196.028c0,0,1.619,0.392,4.018,1.306c2.376,0.906,5.421,2.434,8.238,4.334
				c2.812,1.903,5.392,4.165,7.032,6.17c1.702,1.954,2.348,3.701,2.348,3.701l-1.216,0.455c0,0-0.485-1.486-2.059-3.401
				c-1.503-1.935-3.958-4.205-6.657-6.129c-5.385-4.003-11.89-5.824-11.89-5.824L66.536,196.028z"/>
			<path style="fill:#4A403B;" d="M110.246,217.166c0,0,1.443-6.008,3.991-11.599c2.444-5.645,5.914-10.714,5.914-10.714l0.42,0.273
				c0,0-3.279,5.145-5.507,10.793c-2.336,5.614-3.557,11.555-3.557,11.555L110.246,217.166z"/>
			<path style="fill:#4A403B;" d="M97.83,234.747c0,0,1.544-1.914,4.475-3.807c2.903-1.904,6.856-4.255,10.96-6.35
				c8.176-4.267,16.931-7.151,16.931-7.151l0.178,0.509c0,0-8.657,3.052-16.682,7.456c-4.023,2.159-7.912,4.584-10.72,6.511
				c-2.826,1.929-4.157,3.681-4.157,3.681L97.83,234.747z"/>
			<path style="fill:#4A403B;" d="M63.36,238.389c0,0,2.267,2.189,5.443,5.696c3.199,3.479,7.411,8.204,11.09,13.365
				c3.71,5.132,6.924,10.643,8.819,15.028c1.898,4.384,2.719,7.472,2.719,7.472l-1.245,0.371c0,0-0.857-3.003-2.79-7.258
				c-1.849-4.29-4.971-9.725-8.618-14.813c-3.678-5.063-7.632-9.944-10.695-13.529c-3.049-3.603-5.083-6.005-5.083-6.005
				L63.36,238.389z"/>
			<polygon style="fill:#4A403B;" points="71.547,233.02 76.908,253.638 75.646,253.949 70.801,233.204 			"/>
		</g>
		<g>
			<path style="fill:#4A403B;" d="M120.105,317.943c0,0,12.602-2.08,31.504-5.199c18.903-3.097,44.108-7.192,69.173-12.01
				c25.062-4.751,50.005-10.369,68.549-14.942c9.262-2.321,16.889-4.593,22.121-6.507c5.254-1.848,8.203-3.07,8.203-3.07
				l0.217,0.482c0,0-11.429,6.02-30.039,11.009c-9.275,2.536-20.203,4.887-31.884,7.529c-11.692,2.629-24.206,5.233-36.751,7.671
				c-25.093,4.86-50.28,9.167-69.153,12.444c-18.871,3.279-31.451,5.465-31.451,5.465L120.105,317.943z"/>
			<path style="fill:#4A403B;" d="M171.871,309.612c0,0,0.99-0.37,2.722-1.016c1.636-0.762,3.882-1.896,6.567-3.578
				c5.363-3.265,12.19-8.226,18.798-13.459c13.199-10.498,25.977-21.554,25.977-21.554l0.488,0.533c0,0-12.185,11.758-25.464,22.283
				c-6.612,5.288-13.441,10.33-18.9,13.67c-2.701,1.664-5.188,2.892-6.912,3.661c-1.737,0.63-2.731,0.99-2.731,0.99L171.871,309.612
				z"/>
			<path style="fill:#4A403B;" d="M206.804,303.282c0,0,1.414-0.08,3.888-0.219c2.465-0.185,6.016-0.304,10.298-0.344
				c8.539-0.029,19.911,0.599,31.177,2.163c11.267,1.543,22.384,4.065,30.515,6.646c8.208,2.366,13.226,5.217,13.226,5.217
				l-0.229,0.415c0,0-1.236-0.659-3.562-1.49c-2.318-0.833-5.664-1.952-9.748-3.073c-8.153-2.291-19.25-4.5-30.424-6.079
				c-11.191-1.509-22.492-2.054-30.942-2.023c-4.216-0.007-7.743,0.072-10.224,0.231c-2.476,0.113-3.89,0.178-3.89,0.178
				L206.804,303.282z"/>
			<path style="fill:#4A403B;" d="M247.883,295.241c0,0,11.586-6.003,22.304-13.443c5.371-3.689,10.503-7.706,14.348-10.727
				c3.804-3.081,6.34-5.134,6.34-5.134l0.493,0.545c0,0-2.278,2.366-6.011,5.574c-3.666,3.288-8.876,7.295-14.248,11.068
				c-10.695,7.647-22.465,13.553-22.465,13.553L247.883,295.241z"/>
			<path style="fill:#4A403B;" d="M287.511,286.784c0,0,5.768-0.335,11.454,0.187c5.699,0.45,11.323,1.349,11.323,1.349
				l-0.054,0.439c0,0-5.659-0.605-11.323-0.757c-5.682-0.221-11.276,0.401-11.276,0.401L287.511,286.784z"/>
			<polygon style="fill:#4A403B;" points="190.754,298.711 206.112,274.839 206.567,275.125 192.129,299.575 			"/>
			<polygon style="fill:#4A403B;" points="209.641,283.869 240.338,275.185 240.561,275.933 210.103,285.425 			"/>
			<path style="fill:#4A403B;" d="M255.777,305.37c0,0,5.804-0.128,11.589-0.742c5.785-0.566,11.513-1.615,11.513-1.615l0.131,0.652
				c0,0-5.704,1.289-11.505,2.098c-5.789,0.857-11.644,1.228-11.644,1.228L255.777,305.37z"/>
			<path style="fill:#4A403B;" d="M235.106,303.655c0,0,3.77,3.228,6.731,7.155c3.053,3.871,5.197,8.292,5.197,8.292l-0.589,0.311
				c0,0-2.331-4.254-5.497-7.882c-3.097-3.703-6.896-6.641-6.896-6.641L235.106,303.655z"/>
			<path style="fill:#4A403B;" d="M268.798,263.078c0,0-0.404,6.431-1.873,12.72c-1.365,6.312-3.771,12.341-3.771,12.341
				l-1.498-0.625c0,0,2.635-5.795,4.275-11.964c1.741-6.141,2.443-12.516,2.443-12.516L268.798,263.078z"/>
			<path style="fill:#4A403B;" d="M278.337,275.82c0,0,5.783-1.059,11.323-3.076c5.564-1.923,10.746-4.76,10.746-4.76l0.436,0.781
				c0,0-5.15,3.031-10.742,5.159c-5.547,2.219-11.418,3.483-11.418,3.483L278.337,275.82z"/>
		</g>
		<path style="fill:#FFD562;" d="M270.829,230.766c-8.524,13.801-18.265,22.731-18.265,22.731s13.8,1.623,24.354-13.801
			c10.553-15.424,11.366-29.496,20.025-41.403c8.66-11.907,25.437-19.483,25.437-19.483
			C287.065,190.987,279.353,216.965,270.829,230.766z"/>
		<path style="fill:#FFD562;" d="M346.328,236.043c0,0-19.889,4.194-32.473,20.701c0,0,6.089-2.165,15.831-9.471
			C339.427,239.967,346.328,236.043,346.328,236.043z"/>
		<g>
			<path style="fill:#FFD562;" d="M249.113,216.154c3.261-5.249-1.505-18.373,7.274-22.907c0,0-1.514,4.108,0.251,11.453
				C258.645,213.052,249.113,216.154,249.113,216.154z"/>
			<path style="fill:#FFD562;" d="M277.458,186.088c-2.257,4.056-8.027,0.716-8.779,9.544c0,0,1.003-1.193,4.766-2.863
				C277.208,191.099,277.458,186.088,277.458,186.088z"/>
			<path style="fill:#FFD562;" d="M200.691,153.649c10.122-7.779,1.066-22.394,7.192-29.23c0,0-14.384,6.6-9.323,15.794
				C202.289,146.984,200.691,153.649,200.691,153.649z"/>
			<path style="fill:#FFD562;" d="M197.495,175.022c-0.71-5.343,0.71-10.058,8.879-14.144c0,0-1.066,4.715-4.262,9.115
				C198.916,174.393,197.495,175.022,197.495,175.022z"/>
			<path style="fill:#FFD562;" d="M234.399,265.544c-3.167-4.362-4.161-9.184,1.08-16.665c0,0,1.306,4.653,0.588,10.044
				C235.35,264.315,234.399,265.544,234.399,265.544z"/>
			<path style="fill:#FFD562;" d="M124.858,279.565c-0.881-4.646-0.113-8.86,5.783-12.896c0,0-0.499,4.194-2.626,8.23
				C125.888,278.935,124.858,279.565,124.858,279.565z"/>
			<path style="fill:#FFD562;" d="M321.338,240.569c-0.997-9.554,4.085-12.641,10.278-14.054c6.192-1.412,7.56-5.015,7.56-5.015
				s0.96,7.455-6.602,10.905C325.036,235.846,321.338,240.569,321.338,240.569z"/>
			<path style="fill:#FFD562;" d="M117.275,301.228c-6.903-4.584-6.166-9.661-3.704-14.555c2.461-4.895,0.816-7.784,0.816-7.784
				s5.487,3.455,3.629,10.381C116.164,296.173,117.275,301.228,117.275,301.228z"/>
			<path style="fill:#FFD562;" d="M323.494,200.594c-0.828,5.182,5.796,9.327,0,16.581c0,0,0.253-2.316-1.656-4.923
				C318.802,208.107,323.494,200.594,323.494,200.594z"/>
			<path style="fill:#FFD562;" d="M249.502,231.821c-4.269,7.274,3.198,17.347-9.702,24.824c0,0,1.732-3.321,0.407-8.336
				C238.098,240.331,249.502,231.821,249.502,231.821z"/>
			<path style="fill:#FFD562;" d="M265.418,173.68c1.505-5.25-6.271-11.692,2.508-19.089c0,0-1.254,2.863,0.251,8.351
				C269.682,168.431,265.418,173.68,265.418,173.68z"/>
			<path style="fill:#FFD562;" d="M333.339,283.737c1.218-9.336,6.494-7.915,8.524-12.178c0,0,0.203,5.277-3.247,7.306
				C335.165,280.896,333.339,283.737,333.339,283.737z"/>
			<path style="fill:#FFD562;" d="M208.59,204.247c4.683-1.821,9.366-7.025,10.927-13.269c1.561-6.244,4.423-11.187,4.423-11.187
				s-9.106,6.244-11.187,11.187C210.671,195.922,210.671,201.385,208.59,204.247z"/>
			<path style="fill:#FFD562;" d="M201.013,208.171c-0.947,3.518-0.135,6.766-3.789,9.201c0,0-0.676-2.03,0.135-4.195
				C198.172,211.012,201.013,208.171,201.013,208.171z"/>
			<path style="fill:#FFD562;" d="M303.823,215.833c-4.926,5.061-2.331,10.072-2.203,13.771c0,0,3.368-2.305,3.363-5.799
				C304.979,220.311,303.209,217.601,303.823,215.833z"/>
			<path style="fill:#FFD562;" d="M332.358,249.702c-5.566,4.347-3.674,9.664-4.048,13.346c0,0,3.649-1.828,4.118-5.29
				C332.897,254.296,331.51,251.371,332.358,249.702z"/>
		</g>
	</g>
	<g>
		
			<linearGradient id="SVGID_00000135659494154399973130000000034589995088584122_" gradientUnits="userSpaceOnUse" x1="66.1164" y1="333.7312" x2="536.9683" y2="333.7312">
			<stop  offset="0" style="stop-color:#FFC241"/>
			<stop  offset="0.495" style="stop-color:#DDCA44"/>
			<stop  offset="1" style="stop-color:#BED147"/>
		</linearGradient>
		<path style="fill:url(#SVGID_00000135659494154399973130000000034589995088584122_);" d="M66.116,322.52
			c153.581-7.608,310.537-7.596,470.852,0v28.124H66.116V322.52z"/>
		
			<linearGradient id="SVGID_00000158006329333650399810000011353520434573905071_" gradientUnits="userSpaceOnUse" x1="66.1164" y1="326.9661" x2="536.9683" y2="326.9661">
			<stop  offset="0" style="stop-color:#E8A326"/>
			<stop  offset="0.3347" style="stop-color:#D4A728"/>
			<stop  offset="1" style="stop-color:#A3B22E"/>
		</linearGradient>
		<path style="fill:url(#SVGID_00000158006329333650399810000011353520434573905071_);" d="M66.116,322.52
			c153.581-7.608,310.537-7.596,470.852,0v14.594c-170.487-10.783-327.542-10.866-470.852,0V322.52z"/>
		<path style="fill:#4A403B;" d="M66.116,322.387c91.09-4.512,183.367-6.344,276.829-5.503c0,0-170.482,6.026-276.829,14.689
			V322.387z"/>
	</g>
</g>
</svg>
